<svg id="Layer_1" data-name="Layer 1" xmlns="http://www.w3.org/2000/svg" viewBox="0 0 923 420"><defs><style>.cls-1{fill:#ececec;}.cls-2{fill:#231f20;}.cls-3{fill:#1ecac7;}.cls-4{fill:#7a1743;}</style></defs><title>Slide-16-Chart</title><rect class="cls-1" x="1.5" y="1.5" width="920" height="87.52"/><path class="cls-2" d="M921.5,90.52H1.5A1.5,1.5,0,0,1,0,89V1.5A1.5,1.5,0,0,1,1.5,0h920A1.5,1.5,0,0,1,923,1.5V89A1.5,1.5,0,0,1,921.5,90.52ZM3,87.52H920V3H3Z"/><path d="M129.16,48.82v9.61h-5V32.91h9.54c5,0,8.39,3.35,8.39,8s-3.35,8-8.39,8Zm4-4.28c2.48,0,4-1.44,4-3.64s-1.51-3.67-4-3.67h-3.92v7.31Z"/><path d="M149.21,48.25l4.36-.65c1-.14,1.33-.65,1.33-1.26,0-1.26-1-2.3-3-2.3a3.14,3.14,0,0,0-3.38,2.88l-4.25-.9c.29-2.77,2.84-5.83,7.59-5.83,5.62,0,7.7,3.17,7.7,6.73v8.71a19.84,19.84,0,0,0,.22,2.81H155.4a12,12,0,0,1-.18-2.12A5.92,5.92,0,0,1,150,58.94c-3.78,0-6.08-2.56-6.08-5.33C143.92,50.44,146.26,48.68,149.21,48.25Zm5.69,3v-.79l-4,.61a2.24,2.24,0,0,0-2.2,2.23,2.08,2.08,0,0,0,2.3,2.05C153,55.37,154.9,54.4,154.9,51.27Z"/><path d="M175.2,45.48a7.21,7.21,0,0,0-1.44-.14c-2.45,0-4.57,1.19-4.57,5v8.1H164.4V40.72H169v2.63c1.08-2.34,3.53-2.77,5-2.77a10.87,10.87,0,0,1,1.12.07Z"/><path d="M182.9,48.25l4.36-.65c1-.14,1.33-.65,1.33-1.26,0-1.26-1-2.3-3-2.3a3.14,3.14,0,0,0-3.38,2.88L178,46c.29-2.77,2.84-5.83,7.59-5.83,5.62,0,7.7,3.17,7.7,6.73v8.71a19.84,19.84,0,0,0,.22,2.81h-4.39a12,12,0,0,1-.18-2.12,5.92,5.92,0,0,1-5.22,2.63c-3.78,0-6.08-2.56-6.08-5.33C177.61,50.44,180,48.68,182.9,48.25Zm5.69,3v-.79l-4,.61a2.24,2.24,0,0,0-2.2,2.23,2.08,2.08,0,0,0,2.3,2.05C186.72,55.37,188.59,54.4,188.59,51.27Z"/><path d="M198.09,58.43V40.72h4.57v2.16a6.09,6.09,0,0,1,5.18-2.66,5.48,5.48,0,0,1,5.26,3,6.15,6.15,0,0,1,5.62-3c3.28,0,6.41,2,6.41,6.73V58.43h-4.64V47.92c0-1.91-.94-3.35-3.13-3.35a3.25,3.25,0,0,0-3.28,3.49V58.43h-4.75V47.92c0-1.91-1-3.35-3.13-3.35a3.24,3.24,0,0,0-3.31,3.49V58.43Z"/><path d="M245.86,53.36C245,56.42,242.16,59,237.8,59c-4.86,0-9.14-3.49-9.14-9.47,0-5.65,4.18-9.32,8.71-9.32,5.47,0,8.75,3.49,8.75,9.18,0,.68-.07,1.4-.07,1.48H233.37a4.31,4.31,0,0,0,4.46,4,3.91,3.91,0,0,0,4-2.7Zm-4.46-5.8c-.07-1.76-1.22-3.49-4-3.49a3.83,3.83,0,0,0-4,3.49Z"/><path d="M255.8,40.72h3.56V45H255.8v7.42c0,1.55.72,2.05,2.09,2.05a6.92,6.92,0,0,0,1.48-.14v4a7.09,7.09,0,0,1-2.7.43c-3.46,0-5.62-2.05-5.62-5.47V45h-3.2V40.72h.9a2.55,2.55,0,0,0,2.74-2.81V35.43h4.32Z"/><path d="M279.13,53.36c-.9,3.06-3.71,5.62-8.06,5.62-4.86,0-9.14-3.49-9.14-9.47,0-5.65,4.18-9.32,8.71-9.32,5.47,0,8.75,3.49,8.75,9.18,0,.68-.07,1.4-.07,1.48H266.64a4.31,4.31,0,0,0,4.46,4,3.91,3.91,0,0,0,4-2.7Zm-4.46-5.8c-.07-1.76-1.22-3.49-4-3.49a3.83,3.83,0,0,0-4,3.49Z"/><path d="M294,45.48a7.22,7.22,0,0,0-1.44-.14c-2.45,0-4.57,1.19-4.57,5v8.1h-4.79V40.72h4.64v2.63c1.08-2.34,3.53-2.77,5-2.77a10.86,10.86,0,0,1,1.12.07Z"/><path d="M300,52.6a2.94,2.94,0,0,0,3.24,2.7c1.58,0,2.34-.83,2.34-1.76s-.54-1.44-1.91-1.73l-2.34-.54c-3.42-.76-5-2.81-5-5.29,0-3.17,2.81-5.79,6.62-5.79,5,0,6.73,3.2,6.95,5.11l-4,.9a2.7,2.7,0,0,0-2.92-2.38,2,2,0,0,0-2.27,1.76c0,.86.65,1.4,1.62,1.58l2.52.54c3.49.72,5.25,2.84,5.25,5.44C310.2,56,308,59,303.32,59c-5.33,0-7.16-3.46-7.38-5.47Z"/><path d="M613.76,52.6H603.39l-2.12,5.83H596l9.79-25.52h5.76l9.72,25.52h-5.4ZM605,48.07h7.05l-3.53-9.65Z"/><path d="M634.92,45.48a7.21,7.21,0,0,0-1.44-.14c-2.45,0-4.57,1.19-4.57,5v8.1h-4.79V40.72h4.64v2.63c1.08-2.34,3.53-2.77,5-2.77a10.86,10.86,0,0,1,1.12.07Z"/><path d="M641.19,58.25a4,4,0,0,0,4.14,3.35c3,0,4.71-1.51,4.71-4.93v-1.3a5.63,5.63,0,0,1-4.93,2.27c-4.71,0-8.24-3.64-8.24-8.6,0-4.68,3.38-8.64,8.24-8.64,2.81,0,4.43,1.22,5,2.41V40.72h4.61v15.8c0,4.86-2.63,9.29-9.29,9.29-4.86,0-8.1-3-8.6-6.41ZM650.12,49a4.22,4.22,0,1,0-8.42,0c0,2.77,1.76,4.5,4.25,4.5S650.12,51.77,650.12,49Z"/><path d="M670.89,56.53A5.6,5.6,0,0,1,666,58.9c-4.28,0-6.73-3.13-6.73-7V40.72H664V50.95c0,2,1,3.56,3.24,3.56A3.2,3.2,0,0,0,670.64,51V40.72h4.79V55.23a29.33,29.33,0,0,0,.18,3.2H671A12.1,12.1,0,0,1,670.89,56.53Z"/><path d="M680.54,58.43V40.72h4.57v2.16a6.09,6.09,0,0,1,5.18-2.66,5.48,5.48,0,0,1,5.25,3,6.15,6.15,0,0,1,5.62-3c3.28,0,6.41,2,6.41,6.73V58.43h-4.64V47.92c0-1.91-.94-3.35-3.13-3.35a3.25,3.25,0,0,0-3.28,3.49V58.43h-4.75V47.92c0-1.91-1-3.35-3.13-3.35a3.24,3.24,0,0,0-3.31,3.49V58.43Z"/><path d="M728.31,53.36c-.9,3.06-3.71,5.62-8.06,5.62-4.86,0-9.14-3.49-9.14-9.47,0-5.65,4.18-9.32,8.71-9.32,5.47,0,8.75,3.49,8.75,9.18,0,.68-.07,1.4-.07,1.48H715.82a4.31,4.31,0,0,0,4.46,4,3.91,3.91,0,0,0,4-2.7Zm-4.46-5.8c-.07-1.76-1.22-3.49-4-3.49a3.83,3.83,0,0,0-4,3.49Z"/><path d="M737.13,58.43h-4.79V40.72H737v2.2a5.88,5.88,0,0,1,5.11-2.66c4.39,0,6.41,3.13,6.41,7V58.43h-4.79V48.1c0-2-1-3.53-3.28-3.53-2.09,0-3.31,1.62-3.31,3.67Z"/><path d="M759.27,40.72h3.56V45h-3.56v7.42c0,1.55.72,2.05,2.09,2.05a6.92,6.92,0,0,0,1.48-.14v4a7.09,7.09,0,0,1-2.7.43c-3.46,0-5.62-2.05-5.62-5.47V45h-3.2V40.72h.9a2.55,2.55,0,0,0,2.74-2.81V35.43h4.32Z"/><path d="M769.89,52.6a2.94,2.94,0,0,0,3.24,2.7c1.58,0,2.34-.83,2.34-1.76s-.54-1.44-1.91-1.73l-2.34-.54c-3.42-.76-5-2.81-5-5.29,0-3.17,2.81-5.79,6.62-5.79,5,0,6.73,3.2,6.95,5.11l-4,.9a2.7,2.7,0,0,0-2.92-2.38,2,2,0,0,0-2.27,1.76c0,.86.65,1.4,1.62,1.58l2.52.54c3.49.72,5.25,2.84,5.25,5.44C780,56,777.81,59,773.16,59c-5.33,0-7.16-3.46-7.38-5.47Z"/><path class="cls-2" d="M27.78,119.91v14.83H25.43V119.91H19.74v-2.18H33.47v2.18Z"/><path class="cls-2" d="M37.88,134.75H35.63V117.37h2.26v7.18a4.08,4.08,0,0,1,3.5-1.68c2.76,0,4.13,2,4.13,4.56v7.32H43.26v-6.94c0-1.61-.67-2.9-2.69-2.9-1.73,0-2.64,1.34-2.69,3Z"/><path class="cls-2" d="M59.17,131.46A5.23,5.23,0,0,1,54,135.1c-3.1,0-5.81-2.26-5.81-6.17,0-3.62,2.62-6.1,5.52-6.1,3.55,0,5.54,2.45,5.54,6a5.09,5.09,0,0,1,0,.72H50.51a3.43,3.43,0,0,0,3.48,3.5,3.14,3.14,0,0,0,3.24-2.33Zm-2.28-3.67a2.91,2.91,0,0,0-3.17-3,3.11,3.11,0,0,0-3.14,3Z"/><path class="cls-2" d="M73.4,134.75H71.12L66.44,123.2H69l3.29,8.9,3.31-8.9H78Z"/><path class="cls-2" d="M82.84,128.14l3.12-.46c.7-.1.89-.46.89-.86,0-1.13-.74-2.06-2.5-2.06a2.45,2.45,0,0,0-2.62,2.33l-2.16-.5c.24-2.21,2.23-3.74,4.73-3.74,3.46,0,4.8,2,4.8,4.22v5.78a10.88,10.88,0,0,0,.14,1.9H87a8.46,8.46,0,0,1-.12-1.56,4.21,4.21,0,0,1-3.72,1.92,3.6,3.6,0,0,1-3.86-3.46C79.33,129.58,80.84,128.43,82.84,128.14Zm4,1.66v-.53l-3.53.53a1.73,1.73,0,0,0-1.68,1.73,1.75,1.75,0,0,0,1.87,1.68C85.36,133.21,86.84,132.32,86.84,129.8Z"/><path class="cls-2" d="M99,125.48a7,7,0,0,0-1-.07c-1.9,0-3.17,1-3.17,3.55v5.78H92.6V123.2h2.21v2A3.61,3.61,0,0,1,98.27,123a4.26,4.26,0,0,1,.74.07Z"/><path class="cls-2" d="M102.52,117.2a1.62,1.62,0,1,1-1.61,1.63A1.62,1.62,0,0,1,102.52,117.2Zm-1.1,17.55V123.2h2.23v11.54Z"/><path class="cls-2" d="M110.27,128.14l3.12-.46c.7-.1.89-.46.89-.86,0-1.13-.74-2.06-2.5-2.06a2.45,2.45,0,0,0-2.62,2.33l-2.16-.5c.24-2.21,2.23-3.74,4.73-3.74,3.46,0,4.8,2,4.8,4.22v5.78a10.88,10.88,0,0,0,.14,1.9h-2.21a8.46,8.46,0,0,1-.12-1.56,4.21,4.21,0,0,1-3.72,1.92,3.6,3.6,0,0,1-3.86-3.46C106.76,129.58,108.28,128.43,110.27,128.14Zm4,1.66v-.53l-3.53.53a1.73,1.73,0,0,0-1.68,1.73,1.75,1.75,0,0,0,1.87,1.68C112.79,133.21,114.28,132.32,114.28,129.8Z"/><path class="cls-2" d="M120,134.75V117.37h2.23v7.46a4.21,4.21,0,0,1,3.82-2c3.5,0,5.3,2.69,5.3,6s-1.94,6.14-5.38,6.14a4.12,4.12,0,0,1-3.74-2v1.68Zm5.64-9.89c-2,0-3.43,1.56-3.43,4.06s1.44,4.13,3.43,4.13,3.41-1.63,3.41-4.13S127.76,124.86,125.68,124.86Z"/><path class="cls-2" d="M134.27,134.75V117.37h2.26v17.38Z"/><path class="cls-2" d="M150.42,131.46a5.23,5.23,0,0,1-5.18,3.65c-3.1,0-5.81-2.26-5.81-6.17,0-3.62,2.62-6.1,5.52-6.1,3.55,0,5.54,2.45,5.54,6a5.09,5.09,0,0,1,0,.72h-8.69a3.43,3.43,0,0,0,3.48,3.5,3.14,3.14,0,0,0,3.24-2.33Zm-2.28-3.67a2.91,2.91,0,0,0-3.17-3,3.11,3.11,0,0,0-3.14,3Z"/><path class="cls-2" d="M154.33,131a2.46,2.46,0,0,0,2.69,2.16c1.27,0,2-.72,2-1.54s-.53-1.27-1.49-1.49l-2-.43a3.28,3.28,0,0,1-2.88-3.24,3.93,3.93,0,0,1,4.1-3.65c3.17,0,4.15,2.06,4.39,3.1l-2,.74a2.24,2.24,0,0,0-2.4-1.92,1.74,1.74,0,0,0-1.92,1.54c0,.7.43,1.2,1.32,1.39l1.87.41c2.09.46,3.19,1.73,3.19,3.43s-1.37,3.58-4.22,3.58c-3.17,0-4.51-2-4.7-3.36Z"/><path class="cls-2" d="M173.24,123.2h2.5v2h-2.5v6c0,1.06.43,1.58,1.61,1.58a4.57,4.57,0,0,0,.89-.1v1.92a4.93,4.93,0,0,1-1.54.22,3,3,0,0,1-3.22-3.29v-6.34h-2.21v-2h.62a1.62,1.62,0,0,0,1.78-1.78v-1.87h2.06Z"/><path class="cls-2" d="M181,134.75h-2.26V117.37H181v7.18a4.08,4.08,0,0,1,3.5-1.68c2.76,0,4.13,2,4.13,4.56v7.32h-2.26v-6.94c0-1.61-.67-2.9-2.69-2.9-1.73,0-2.64,1.34-2.69,3Z"/><path class="cls-2" d="M195,128.14l3.12-.46c.7-.1.89-.46.89-.86,0-1.13-.74-2.06-2.5-2.06a2.45,2.45,0,0,0-2.62,2.33l-2.16-.5c.24-2.21,2.23-3.74,4.73-3.74,3.46,0,4.8,2,4.8,4.22v5.78a10.88,10.88,0,0,0,.14,1.9h-2.21a8.46,8.46,0,0,1-.12-1.56,4.21,4.21,0,0,1-3.72,1.92,3.6,3.6,0,0,1-3.86-3.46C191.51,129.58,193,128.43,195,128.14Zm4,1.66v-.53l-3.53.53a1.73,1.73,0,0,0-1.68,1.73,1.75,1.75,0,0,0,1.87,1.68C197.53,133.21,199,132.32,199,129.8Z"/><path class="cls-2" d="M207.8,123.2h2.5v2h-2.5v6c0,1.06.43,1.58,1.61,1.58a4.57,4.57,0,0,0,.89-.1v1.92a4.93,4.93,0,0,1-1.54.22,3,3,0,0,1-3.22-3.29v-6.34h-2.21v-2H204a1.62,1.62,0,0,0,1.78-1.78v-1.87h2.06Z"/><path class="cls-2" d="M222.08,128.14l3.12-.46c.7-.1.89-.46.89-.86,0-1.13-.74-2.06-2.5-2.06a2.45,2.45,0,0,0-2.62,2.33l-2.16-.5c.24-2.21,2.23-3.74,4.73-3.74,3.46,0,4.8,2,4.8,4.22v5.78a10.86,10.86,0,0,0,.14,1.9h-2.21a8.49,8.49,0,0,1-.12-1.56,4.21,4.21,0,0,1-3.72,1.92,3.6,3.6,0,0,1-3.86-3.46C218.58,129.58,220.09,128.43,222.08,128.14Zm4,1.66v-.53l-3.53.53a1.73,1.73,0,0,0-1.68,1.73,1.75,1.75,0,0,0,1.87,1.68C224.6,133.21,226.09,132.32,226.09,129.8Z"/><path class="cls-2" d="M238.26,125.48a7,7,0,0,0-1-.07c-1.9,0-3.17,1-3.17,3.55v5.78h-2.26V123.2h2.21v2a3.62,3.62,0,0,1,3.46-2.21,4.27,4.27,0,0,1,.74.07Z"/><path class="cls-2" d="M250.59,131.46a5.23,5.23,0,0,1-5.18,3.65c-3.1,0-5.81-2.26-5.81-6.17,0-3.62,2.62-6.1,5.52-6.1,3.55,0,5.54,2.45,5.54,6a5,5,0,0,1,0,.72h-8.69a3.43,3.43,0,0,0,3.48,3.5,3.15,3.15,0,0,0,3.24-2.33Zm-2.28-3.67a2.91,2.91,0,0,0-3.17-3,3.11,3.11,0,0,0-3.14,3Z"/><path class="cls-2" d="M267.63,133a3.86,3.86,0,0,1-3.58,2.06c-3.38,0-5.47-2.69-5.47-6.12,0-3.26,2.21-6,5.47-6a3.55,3.55,0,0,1,3.53,1.94v-7.46h2.23v15.24a18.16,18.16,0,0,0,.12,2.14h-2.18a9.69,9.69,0,0,1-.12-1.56Zm-3.36.07c2.06,0,3.34-1.8,3.34-4.18s-1.25-4-3.31-4-3.41,1.68-3.41,4.06S262.11,133.06,264.27,133.06Z"/><path class="cls-2" d="M283.71,131.46a5.23,5.23,0,0,1-5.18,3.65c-3.1,0-5.81-2.26-5.81-6.17,0-3.62,2.62-6.1,5.52-6.1,3.55,0,5.54,2.45,5.54,6a5,5,0,0,1,0,.72H275a3.43,3.43,0,0,0,3.48,3.5,3.15,3.15,0,0,0,3.24-2.33Zm-2.28-3.67a2.91,2.91,0,0,0-3.17-3,3.11,3.11,0,0,0-3.14,3Z"/><path class="cls-2" d="M289.69,125.24v9.5h-2.33v-9.5h-2.14v-2h2.14v-1.94a3.66,3.66,0,0,1,3.79-4,2.91,2.91,0,0,1,1.34.24v2a2.61,2.61,0,0,0-1-.14,1.73,1.73,0,0,0-1.82,2v1.82h2.78v2Z"/><path class="cls-2" d="M296,117.2a1.62,1.62,0,1,1-1.61,1.63A1.62,1.62,0,0,1,296,117.2Zm-1.1,17.55V123.2h2.23v11.54Z"/><path class="cls-2" d="M303.22,134.75H301V123.2h2.21v1.66a4,4,0,0,1,3.55-2c2.76,0,4.13,2,4.13,4.56v7.32H308.6v-6.94c0-1.61-.67-2.9-2.69-2.9-1.78,0-2.69,1.42-2.69,3.17Z"/><path class="cls-2" d="M324.51,131.46a5.23,5.23,0,0,1-5.18,3.65c-3.1,0-5.81-2.26-5.81-6.17,0-3.62,2.62-6.1,5.52-6.1,3.55,0,5.54,2.45,5.54,6a5,5,0,0,1,0,.72h-8.69a3.43,3.43,0,0,0,3.48,3.5,3.15,3.15,0,0,0,3.24-2.33Zm-2.28-3.67a2.91,2.91,0,0,0-3.17-3,3.11,3.11,0,0,0-3.14,3Z"/><path class="cls-2" d="M335.55,133a3.86,3.86,0,0,1-3.58,2.06c-3.38,0-5.47-2.69-5.47-6.12,0-3.26,2.21-6,5.47-6a3.55,3.55,0,0,1,3.53,1.94v-7.46h2.23v15.24a18.16,18.16,0,0,0,.12,2.14h-2.18a9.69,9.69,0,0,1-.12-1.56Zm-3.36.07c2.06,0,3.34-1.8,3.34-4.18s-1.25-4-3.31-4-3.41,1.68-3.41,4.06S330,133.06,332.19,133.06Z"/><path class="cls-2" d="M348.68,117.2a1.62,1.62,0,1,1-1.61,1.63A1.62,1.62,0,0,1,348.68,117.2Zm-1.1,17.55V123.2h2.23v11.54Z"/><path class="cls-2" d="M355.9,134.75h-2.26V123.2h2.21v1.66a4,4,0,0,1,3.55-2c2.76,0,4.13,2,4.13,4.56v7.32h-2.26v-6.94c0-1.61-.67-2.9-2.69-2.9-1.78,0-2.69,1.42-2.69,3.17Z"/><path class="cls-2" d="M24.44,152h2.5v2h-2.5v6c0,1.06.43,1.58,1.61,1.58a4.57,4.57,0,0,0,.89-.1v1.92a4.93,4.93,0,0,1-1.54.22,3,3,0,0,1-3.22-3.29V154H20v-2h.62a1.62,1.62,0,0,0,1.78-1.78v-1.87h2.06Z"/><path class="cls-2" d="M32.2,163.54H29.94V146.17H32.2v7.18a4.08,4.08,0,0,1,3.5-1.68c2.76,0,4.13,2,4.13,4.56v7.32H37.57v-6.94c0-1.61-.67-2.9-2.69-2.9-1.73,0-2.64,1.34-2.69,3Z"/><path class="cls-2" d="M53.48,160.26a5.23,5.23,0,0,1-5.18,3.65c-3.1,0-5.81-2.26-5.81-6.17,0-3.62,2.62-6.1,5.52-6.1,3.55,0,5.54,2.45,5.54,6a5.09,5.09,0,0,1,0,.72H44.82a3.43,3.43,0,0,0,3.48,3.5,3.15,3.15,0,0,0,3.24-2.33Zm-2.28-3.67a2.91,2.91,0,0,0-3.17-3,3.11,3.11,0,0,0-3.14,3Z"/><path class="cls-2" d="M65.46,154v9.5H63.13V154H61v-2h2.14v-1.94a3.66,3.66,0,0,1,3.79-4,2.91,2.91,0,0,1,1.34.24v2a2.6,2.6,0,0,0-1-.14,1.73,1.73,0,0,0-1.82,2V152h2.78v2Z"/><path class="cls-2" d="M74.75,163.9c-2.69,0-4.32-2-4.32-4.63V152h2.26v6.94c0,1.58.72,3,2.62,3s2.74-1.2,2.74-3v-7h2.26v9.41a19.34,19.34,0,0,0,.12,2.14H78.25a10.16,10.16,0,0,1-.1-1.39A3.77,3.77,0,0,1,74.75,163.9Z"/><path class="cls-2" d="M86.39,163.54H84.13V152h2.21v1.66a4,4,0,0,1,3.55-2c2.76,0,4.13,2,4.13,4.56v7.32H91.76v-6.94c0-1.61-.67-2.9-2.69-2.9-1.78,0-2.69,1.42-2.69,3.17Z"/><path class="cls-2" d="M99,157.76c0,2.64,1.66,4.06,3.53,4.06a3.14,3.14,0,0,0,3.22-2.38l2,.86a5.3,5.3,0,0,1-5.21,3.6,6.14,6.14,0,0,1,0-12.26,5,5,0,0,1,5.14,3.67l-2,.86a3,3,0,0,0-3.1-2.45C100.64,153.73,99,155.07,99,157.76Z"/><path class="cls-2" d="M113.36,152h2.5v2h-2.5v6c0,1.06.43,1.58,1.61,1.58a4.57,4.57,0,0,0,.89-.1v1.92a4.93,4.93,0,0,1-1.54.22,3,3,0,0,1-3.22-3.29V154H108.9v-2h.62a1.62,1.62,0,0,0,1.78-1.78v-1.87h2.06Z"/><path class="cls-2" d="M120,146a1.62,1.62,0,1,1-1.61,1.63A1.62,1.62,0,0,1,120,146Zm-1.1,17.55V152h2.23v11.54Z"/><path class="cls-2" d="M135.78,157.76a5.91,5.91,0,1,1-5.9-6.12A5.83,5.83,0,0,1,135.78,157.76Zm-2.3,0c0-2.66-1.68-4.1-3.6-4.1s-3.6,1.44-3.6,4.1,1.68,4.13,3.6,4.13S133.48,160.45,133.48,157.76Z"/><path class="cls-2" d="M140.92,163.54h-2.26V152h2.21v1.66a4,4,0,0,1,3.55-2c2.76,0,4.13,2,4.13,4.56v7.32h-2.26v-6.94c0-1.61-.67-2.9-2.69-2.9-1.78,0-2.69,1.42-2.69,3.17Z"/><path class="cls-2" d="M152.65,147.7a1.39,1.39,0,0,1,1.44,1.46,2.39,2.39,0,0,1,0,.43l-1,4.51h-.82l-1-4.49a2.89,2.89,0,0,1,0-.46A1.4,1.4,0,0,1,152.65,147.7Z"/><path class="cls-2" d="M157.93,159.82a2.46,2.46,0,0,0,2.69,2.16c1.27,0,2-.72,2-1.54s-.53-1.27-1.49-1.49l-2-.43a3.28,3.28,0,0,1-2.88-3.24,3.93,3.93,0,0,1,4.1-3.65c3.17,0,4.15,2.06,4.39,3.1l-2,.74a2.24,2.24,0,0,0-2.4-1.92,1.74,1.74,0,0,0-1.92,1.54c0,.7.43,1.2,1.32,1.39l1.87.41c2.09.46,3.19,1.73,3.19,3.43s-1.37,3.58-4.22,3.58c-3.17,0-4.51-2-4.7-3.36Z"/><path class="cls-2" d="M181.91,161.79a3.86,3.86,0,0,1-3.58,2.06c-3.38,0-5.47-2.69-5.47-6.12,0-3.26,2.21-6,5.47-6a3.55,3.55,0,0,1,3.53,1.94v-7.46h2.23v15.24a18.27,18.27,0,0,0,.12,2.14H182a9.69,9.69,0,0,1-.12-1.56Zm-3.36.07c2.06,0,3.34-1.8,3.34-4.18s-1.25-4-3.31-4-3.41,1.68-3.41,4.06S176.39,161.86,178.55,161.86Z"/><path class="cls-2" d="M198,160.26a5.23,5.23,0,0,1-5.18,3.65c-3.1,0-5.81-2.26-5.81-6.17,0-3.62,2.62-6.1,5.52-6.1,3.55,0,5.54,2.45,5.54,6a5.09,5.09,0,0,1,0,.72h-8.69a3.43,3.43,0,0,0,3.48,3.5,3.15,3.15,0,0,0,3.24-2.33Zm-2.28-3.67a2.91,2.91,0,0,0-3.17-3,3.11,3.11,0,0,0-3.14,3Z"/><path class="cls-2" d="M202.28,157.76c0,2.64,1.66,4.06,3.53,4.06a3.14,3.14,0,0,0,3.22-2.38l2,.86a5.3,5.3,0,0,1-5.21,3.6,6.14,6.14,0,0,1,0-12.26,5,5,0,0,1,5.14,3.67l-2,.86a3,3,0,0,0-3.1-2.45C204,153.73,202.28,155.07,202.28,157.76Z"/><path class="cls-2" d="M213.66,163.54V146.17h2.26v17.38Z"/><path class="cls-2" d="M222.54,156.94l3.12-.46c.7-.1.89-.46.89-.86,0-1.13-.74-2.06-2.5-2.06a2.45,2.45,0,0,0-2.62,2.33l-2.16-.5c.24-2.21,2.23-3.74,4.73-3.74,3.46,0,4.8,2,4.8,4.22v5.78a10.89,10.89,0,0,0,.14,1.9h-2.21a8.46,8.46,0,0,1-.12-1.56,4.21,4.21,0,0,1-3.72,1.92,3.6,3.6,0,0,1-3.86-3.46C219,158.38,220.55,157.23,222.54,156.94Zm4,1.66v-.53l-3.53.53a1.73,1.73,0,0,0-1.68,1.73,1.75,1.75,0,0,0,1.87,1.68C225.06,162,226.55,161.12,226.55,158.6Z"/><path class="cls-2" d="M238.71,154.28a7,7,0,0,0-1-.07c-1.9,0-3.17,1-3.17,3.55v5.78H232.3V152h2.21v2a3.62,3.62,0,0,1,3.46-2.21,4.27,4.27,0,0,1,.74.07Z"/><path class="cls-2" d="M243.9,156.94l3.12-.46c.7-.1.89-.46.89-.86,0-1.13-.74-2.06-2.5-2.06a2.45,2.45,0,0,0-2.62,2.33l-2.16-.5c.24-2.21,2.23-3.74,4.73-3.74,3.46,0,4.8,2,4.8,4.22v5.78a10.86,10.86,0,0,0,.14,1.9H248.1A8.49,8.49,0,0,1,248,162a4.21,4.21,0,0,1-3.72,1.92,3.6,3.6,0,0,1-3.86-3.46C240.39,158.38,241.9,157.23,243.9,156.94Zm4,1.66v-.53l-3.53.53a1.73,1.73,0,0,0-1.68,1.73,1.75,1.75,0,0,0,1.87,1.68C246.42,162,247.91,161.12,247.91,158.6Z"/><path class="cls-2" d="M256.69,152h2.5v2h-2.5v6c0,1.06.43,1.58,1.61,1.58a4.57,4.57,0,0,0,.89-.1v1.92a4.92,4.92,0,0,1-1.54.22,3,3,0,0,1-3.22-3.29V154h-2.21v-2h.62a1.61,1.61,0,0,0,1.78-1.78v-1.87h2.06Z"/><path class="cls-2" d="M263.29,146a1.62,1.62,0,1,1-1.61,1.63A1.62,1.62,0,0,1,263.29,146Zm-1.1,17.55V152h2.23v11.54Z"/><path class="cls-2" d="M279.1,157.76a5.91,5.91,0,1,1-5.91-6.12A5.83,5.83,0,0,1,279.1,157.76Zm-2.3,0c0-2.66-1.68-4.1-3.6-4.1s-3.6,1.44-3.6,4.1,1.68,4.13,3.6,4.13S276.8,160.45,276.8,157.76Z"/><path class="cls-2" d="M284.24,163.54H282V152h2.21v1.66a4,4,0,0,1,3.55-2c2.76,0,4.13,2,4.13,4.56v7.32h-2.26v-6.94c0-1.61-.67-2.9-2.69-2.9-1.78,0-2.69,1.42-2.69,3.17Z"/><path class="cls-2" d="M310.3,152l3,8.69,2.54-8.69h2.38l-3.74,11.54h-2.33l-3.07-8.78-3,8.78H303.7L299.91,152h2.47l2.59,8.69,3-8.69Z"/><path class="cls-2" d="M322.76,163.54H320.5V146.17h2.26v7.18a4.08,4.08,0,0,1,3.5-1.68c2.76,0,4.13,2,4.13,4.56v7.32h-2.26v-6.94c0-1.61-.67-2.9-2.69-2.9-1.73,0-2.64,1.34-2.69,3Z"/><path class="cls-2" d="M344,160.26a5.23,5.23,0,0,1-5.18,3.65c-3.1,0-5.81-2.26-5.81-6.17,0-3.62,2.62-6.1,5.52-6.1,3.55,0,5.54,2.45,5.54,6a5,5,0,0,1,0,.72h-8.69a3.43,3.43,0,0,0,3.48,3.5,3.15,3.15,0,0,0,3.24-2.33Zm-2.28-3.67a2.91,2.91,0,0,0-3.17-3,3.11,3.11,0,0,0-3.14,3Z"/><path class="cls-2" d="M349.26,163.54H347V152h2.21v1.66a4,4,0,0,1,3.55-2c2.76,0,4.13,2,4.13,4.56v7.32h-2.26v-6.94c0-1.61-.67-2.9-2.69-2.9-1.78,0-2.69,1.42-2.69,3.17Z"/><path class="cls-2" d="M369.51,152H372v2h-2.5v6c0,1.06.43,1.58,1.61,1.58a4.57,4.57,0,0,0,.89-.1v1.92a4.92,4.92,0,0,1-1.54.22,3,3,0,0,1-3.22-3.29V154H365v-2h.62a1.61,1.61,0,0,0,1.78-1.78v-1.87h2.06Z"/><path class="cls-2" d="M377.26,163.54H375V146.17h2.26v7.18a4.08,4.08,0,0,1,3.5-1.68c2.76,0,4.13,2,4.13,4.56v7.32h-2.26v-6.94c0-1.61-.67-2.9-2.69-2.9-1.73,0-2.64,1.34-2.69,3Z"/><path class="cls-2" d="M398.55,160.26a5.23,5.23,0,0,1-5.18,3.65c-3.1,0-5.81-2.26-5.81-6.17,0-3.62,2.62-6.1,5.52-6.1,3.55,0,5.54,2.45,5.54,6a5,5,0,0,1,0,.72h-8.69a3.43,3.43,0,0,0,3.48,3.5,3.15,3.15,0,0,0,3.24-2.33Zm-2.28-3.67a2.91,2.91,0,0,0-3.17-3,3.11,3.11,0,0,0-3.14,3Z"/><path class="cls-2" d="M24.44,182.84v9.5H22.12v-9.5H20v-2h2.14v-1.94a3.66,3.66,0,0,1,3.79-4,2.91,2.91,0,0,1,1.34.24v2a2.6,2.6,0,0,0-1-.14,1.73,1.73,0,0,0-1.82,2v1.82h2.78v2Z"/><path class="cls-2" d="M33.73,192.71c-2.69,0-4.32-2-4.32-4.63V180.8h2.26v6.94c0,1.58.72,3,2.62,3s2.74-1.2,2.74-3v-7h2.26v9.41a19.34,19.34,0,0,0,.12,2.14H37.24a10.16,10.16,0,0,1-.1-1.39A3.77,3.77,0,0,1,33.73,192.71Z"/><path class="cls-2" d="M45.37,192.35H43.12V180.8h2.21v1.66a4,4,0,0,1,3.55-2c2.76,0,4.13,2,4.13,4.56v7.32H50.75v-6.94c0-1.61-.67-2.9-2.69-2.9-1.78,0-2.69,1.42-2.69,3.17Z"/><path class="cls-2" d="M57.95,186.56c0,2.64,1.66,4.06,3.53,4.06a3.14,3.14,0,0,0,3.22-2.38l2,.86a5.3,5.3,0,0,1-5.21,3.6,6.14,6.14,0,0,1,0-12.27,5,5,0,0,1,5.14,3.67l-2,.86a3,3,0,0,0-3.1-2.45C59.63,182.53,57.95,183.87,57.95,186.56Z"/><path class="cls-2" d="M72.35,180.8h2.5v2h-2.5v6c0,1.06.43,1.58,1.61,1.58a4.57,4.57,0,0,0,.89-.1v1.92a4.93,4.93,0,0,1-1.54.22,3,3,0,0,1-3.22-3.29v-6.34H67.88v-2h.62A1.62,1.62,0,0,0,70.28,179v-1.87h2.06Z"/><path class="cls-2" d="M78.95,174.8a1.62,1.62,0,1,1-1.61,1.63A1.62,1.62,0,0,1,78.95,174.8Zm-1.1,17.55V180.8h2.23v11.54Z"/><path class="cls-2" d="M94.76,186.56a5.91,5.91,0,1,1-5.9-6.12A5.83,5.83,0,0,1,94.76,186.56Zm-2.3,0c0-2.66-1.68-4.1-3.6-4.1s-3.6,1.44-3.6,4.1,1.68,4.13,3.6,4.13S92.46,189.25,92.46,186.56Z"/><path class="cls-2" d="M99.9,192.35H97.64V180.8h2.21v1.66a4,4,0,0,1,3.55-2c2.76,0,4.13,2,4.13,4.56v7.32h-2.26v-6.94c0-1.61-.67-2.9-2.69-2.9-1.78,0-2.69,1.42-2.69,3.17Z"/><path class="cls-2" d="M118.24,174.8a1.62,1.62,0,1,1-1.61,1.63A1.62,1.62,0,0,1,118.24,174.8Zm-1.1,17.55V180.8h2.23v11.54Z"/><path class="cls-2" d="M124.16,188.63a2.46,2.46,0,0,0,2.69,2.16c1.27,0,2-.72,2-1.54s-.53-1.27-1.49-1.49l-2-.43a3.28,3.28,0,0,1-2.88-3.24,3.93,3.93,0,0,1,4.1-3.65c3.17,0,4.15,2.06,4.39,3.1l-2,.74a2.24,2.24,0,0,0-2.4-1.92,1.74,1.74,0,0,0-1.92,1.54c0,.7.43,1.2,1.32,1.39l1.87.41c2.09.46,3.19,1.73,3.19,3.43s-1.37,3.58-4.22,3.58c-3.17,0-4.51-2-4.7-3.36Z"/><path class="cls-2" d="M148.14,190.59a3.86,3.86,0,0,1-3.58,2.06c-3.38,0-5.47-2.69-5.47-6.12,0-3.26,2.21-6,5.47-6a3.55,3.55,0,0,1,3.53,1.94V175h2.23v15.24a18.27,18.27,0,0,0,.12,2.14h-2.18a9.69,9.69,0,0,1-.12-1.56Zm-3.36.07c2.06,0,3.34-1.8,3.34-4.18s-1.25-4-3.31-4-3.41,1.68-3.41,4.06S142.62,190.67,144.78,190.67Z"/><path class="cls-2" d="M164.22,189.06a5.23,5.23,0,0,1-5.18,3.65c-3.1,0-5.81-2.26-5.81-6.17,0-3.62,2.62-6.1,5.52-6.1,3.55,0,5.54,2.45,5.54,6a5.09,5.09,0,0,1,0,.72h-8.69a3.43,3.43,0,0,0,3.48,3.5,3.15,3.15,0,0,0,3.24-2.33Zm-2.28-3.67a2.91,2.91,0,0,0-3.17-3,3.11,3.11,0,0,0-3.14,3Z"/><path class="cls-2" d="M170.19,182.84v9.5h-2.33v-9.5h-2.14v-2h2.14v-1.94a3.66,3.66,0,0,1,3.79-4,2.91,2.91,0,0,1,1.34.24v2a2.6,2.6,0,0,0-1-.14,1.73,1.73,0,0,0-1.82,2v1.82H173v2Z"/><path class="cls-2" d="M176.51,174.8a1.62,1.62,0,1,1-1.61,1.63A1.62,1.62,0,0,1,176.51,174.8Zm-1.1,17.55V180.8h2.23v11.54Z"/><path class="cls-2" d="M183.73,192.35h-2.26V180.8h2.21v1.66a4,4,0,0,1,3.55-2c2.76,0,4.13,2,4.13,4.56v7.32h-2.26v-6.94c0-1.61-.67-2.9-2.69-2.9-1.78,0-2.69,1.42-2.69,3.17Z"/><path class="cls-2" d="M205,189.06a5.23,5.23,0,0,1-5.18,3.65c-3.1,0-5.81-2.26-5.81-6.17,0-3.62,2.62-6.1,5.52-6.1,3.55,0,5.54,2.45,5.54,6a5.09,5.09,0,0,1,0,.72h-8.69a3.43,3.43,0,0,0,3.48,3.5,3.14,3.14,0,0,0,3.24-2.33Zm-2.28-3.67a2.91,2.91,0,0,0-3.17-3,3.11,3.11,0,0,0-3.14,3Z"/><path class="cls-2" d="M216.06,190.59a3.86,3.86,0,0,1-3.58,2.06c-3.38,0-5.47-2.69-5.47-6.12,0-3.26,2.21-6,5.47-6a3.55,3.55,0,0,1,3.53,1.94V175h2.23v15.24a18.27,18.27,0,0,0,.12,2.14h-2.18a9.69,9.69,0,0,1-.12-1.56Zm-3.36.07c2.06,0,3.34-1.8,3.34-4.18s-1.25-4-3.31-4-3.41,1.68-3.41,4.06S210.54,190.67,212.7,190.67Z"/><path class="cls-2" d="M223.5,189.13a1.67,1.67,0,0,1,1.68,1.68,1.65,1.65,0,0,1-1.68,1.66,1.63,1.63,0,0,1-1.66-1.66A1.65,1.65,0,0,1,223.5,189.13Z"/><path class="cls-2" d="M21.48,286.28v-15.6H31v2H23.64v4.8h6.65v2H23.64v4.77H31v2Z"/><path class="cls-2" d="M36.44,280.89l-3.81-5.19h2.51l2.6,3.72,2.55-3.72h2.44L39,280.89c.64.86,3.26,4.53,3.89,5.39H40.38l-2.73-3.89L35,286.28H32.5Z"/><path class="cls-2" d="M46.25,275.59a1.53,1.53,0,0,1,1.54,1.54,1.51,1.51,0,0,1-1.54,1.52,1.49,1.49,0,0,1-1.52-1.52A1.51,1.51,0,0,1,46.25,275.59Zm0,7.75a1.53,1.53,0,0,1,1.54,1.54,1.51,1.51,0,0,1-1.54,1.52,1.49,1.49,0,0,1-1.52-1.52A1.51,1.51,0,0,1,46.27,283.33Z"/><path class="cls-3" d="M26.1,334.28H24L19.72,323.7h2.33l3,8.16,3-8.16h2.22Z"/><path class="cls-3" d="M34.75,328.23l2.86-.42c.64-.09.81-.42.81-.79,0-1-.68-1.89-2.29-1.89a2.25,2.25,0,0,0-2.4,2.13l-2-.46a4.08,4.08,0,0,1,4.33-3.43c3.17,0,4.4,1.8,4.4,3.87v5.3a10,10,0,0,0,.13,1.74h-2a7.75,7.75,0,0,1-.11-1.43,3.86,3.86,0,0,1-3.41,1.76,3.3,3.3,0,0,1-3.54-3.17C31.53,329.55,32.92,328.5,34.75,328.23Zm3.67,1.52v-.48l-3.23.48a1.58,1.58,0,0,0-1.54,1.58,1.6,1.6,0,0,0,1.72,1.54A2.77,2.77,0,0,0,38.42,329.75Z"/><path class="cls-3" d="M49.58,325.79a6.46,6.46,0,0,0-.9-.07c-1.74,0-2.9.92-2.9,3.26v5.3H43.7V323.7h2v1.85a3.31,3.31,0,0,1,3.17-2,3.94,3.94,0,0,1,.68.07Z"/><path class="cls-4" d="M64.69,332.68a3.54,3.54,0,0,1-3.28,1.89c-3.1,0-5-2.46-5-5.61,0-3,2-5.54,5-5.54a3.25,3.25,0,0,1,3.23,1.78v-6.84h2v14a16.76,16.76,0,0,0,.11,2h-2a8.88,8.88,0,0,1-.11-1.43Zm-3.08.07c1.89,0,3.06-1.65,3.06-3.83s-1.14-3.67-3-3.67-3.12,1.54-3.12,3.72S59.63,332.74,61.61,332.74Z"/><path class="cls-4" d="M80.16,329a5.42,5.42,0,1,1-5.41-5.61A5.34,5.34,0,0,1,80.16,329ZM78,329c0-2.44-1.54-3.76-3.3-3.76s-3.3,1.32-3.3,3.76,1.54,3.79,3.3,3.79S78,331.45,78,329Z"/><path class="cls-4" d="M91,322.91a3.16,3.16,0,0,0-3.3-2.66,2.76,2.76,0,0,0-3,2.6,2.26,2.26,0,0,0,2,2.27l2.33.51c2.6.57,4,2.2,4,4.38,0,2.42-2.07,4.62-5.39,4.62-3.76,0-5.54-2.42-5.83-4.64l2.07-.66a3.55,3.55,0,0,0,3.74,3.34c2.16,0,3.21-1.12,3.21-2.49a2.54,2.54,0,0,0-2.33-2.42l-2.22-.48c-2.22-.48-3.81-1.94-3.81-4.27a5,5,0,0,1,5.15-4.64c3.52,0,4.93,2.18,5.28,3.87Z"/><path class="cls-4" d="M105.57,329a5.42,5.42,0,1,1-5.41-5.61A5.34,5.34,0,0,1,105.57,329Zm-2.11,0c0-2.44-1.54-3.76-3.3-3.76s-3.3,1.32-3.3,3.76,1.54,3.79,3.3,3.79S103.45,331.45,103.45,329Z"/><path class="cls-4" d="M108.2,334.28V323.7h2v1.41a3.65,3.65,0,0,1,3.21-1.72,3.31,3.31,0,0,1,3.17,2,3.8,3.8,0,0,1,3.54-2c1.85,0,3.65,1.25,3.65,4v6.87h-2v-6.64a2.13,2.13,0,0,0-2.24-2.42,2.47,2.47,0,0,0-2.44,2.66v6.4H115v-6.64a2.13,2.13,0,0,0-2.24-2.42,2.45,2.45,0,0,0-2.46,2.68v6.38Z"/><path class="cls-4" d="M136.28,331.27a4.8,4.8,0,0,1-4.75,3.34,5.64,5.64,0,0,1-.26-11.24c3.26,0,5.08,2.24,5.08,5.54a4.67,4.67,0,0,1,0,.66h-8a3.14,3.14,0,0,0,3.19,3.21,2.88,2.88,0,0,0,3-2.13Zm-2.09-3.37a2.67,2.67,0,0,0-2.9-2.71,2.85,2.85,0,0,0-2.88,2.71Z"/><path class="cls-4" d="M141.75,323.7H144v1.87h-2.29v5.5c0,1,.4,1.45,1.47,1.45a4.19,4.19,0,0,0,.81-.09v1.76a4.51,4.51,0,0,1-1.41.2,2.75,2.75,0,0,1-2.95-3v-5.81h-2V323.7h.57a1.48,1.48,0,0,0,1.63-1.63v-1.72h1.89Z"/><path class="cls-4" d="M148.86,334.28h-2.07V318.35h2.07v6.58a3.74,3.74,0,0,1,3.21-1.54c2.53,0,3.78,1.83,3.78,4.18v6.71h-2.07v-6.36c0-1.47-.62-2.66-2.46-2.66-1.58,0-2.42,1.23-2.46,2.79Z"/><path class="cls-4" d="M160.17,318.2a1.49,1.49,0,1,1-1.47,1.5A1.48,1.48,0,0,1,160.17,318.2Zm-1,16.08V323.7h2v10.58Z"/><path class="cls-4" d="M166.79,334.28h-2.07V323.7h2v1.52a3.62,3.62,0,0,1,3.26-1.83c2.53,0,3.78,1.83,3.78,4.18v6.71h-2.07v-6.36c0-1.47-.62-2.66-2.46-2.66-1.63,0-2.46,1.3-2.46,2.91Z"/><path class="cls-4" d="M178.32,334.39a2.81,2.81,0,0,0,2.88,2.6c2.22,0,3.23-1.14,3.23-3.43V332a3.53,3.53,0,0,1-3.23,1.74,5.15,5.15,0,0,1,0-10.28,3.34,3.34,0,0,1,3.26,1.67V323.7h2v9.79c0,2.68-1.32,5.3-5.3,5.3a4.63,4.63,0,0,1-4.88-3.94Zm6.21-5.74c0-2-1.23-3.39-3-3.39s-3.06,1.34-3.06,3.39,1.19,3.39,3.06,3.39S184.52,330.7,184.52,328.65Z"/><path class="cls-2" d="M195,326.67V325h10.19v1.69Zm0,4.29v-1.74h10.19V331Z"/><path class="cls-2" d="M222.12,325.57v8.71H220v-8.71h-2V323.7h2v-1.78a3.36,3.36,0,0,1,3.48-3.63,2.69,2.69,0,0,1,1.23.22v1.85a2.39,2.39,0,0,0-.9-.13,1.59,1.59,0,0,0-1.67,1.8v1.67h2.55v1.87Z"/><path class="cls-2" d="M230.63,334.61a3.91,3.91,0,0,1-4-4.25V323.7h2.07v6.36c0,1.45.66,2.73,2.4,2.73a2.39,2.39,0,0,0,2.51-2.71V323.7h2.07v8.63a17.8,17.8,0,0,0,.11,2h-2a9.38,9.38,0,0,1-.09-1.28A3.45,3.45,0,0,1,230.63,334.61Z"/><path class="cls-2" d="M241.3,334.28h-2.07V323.7h2v1.52a3.63,3.63,0,0,1,3.26-1.83c2.53,0,3.78,1.83,3.78,4.18v6.71h-2.07v-6.36c0-1.47-.62-2.66-2.46-2.66-1.63,0-2.46,1.3-2.46,2.91Z"/><path class="cls-2" d="M252.83,329c0,2.42,1.52,3.72,3.23,3.72a2.88,2.88,0,0,0,2.95-2.18l1.83.79a4.86,4.86,0,0,1-4.78,3.3,5.63,5.63,0,0,1,0-11.24,4.6,4.6,0,0,1,4.71,3.37l-1.87.79a2.78,2.78,0,0,0-2.84-2.24C254.37,325.28,252.83,326.52,252.83,329Z"/><path class="cls-2" d="M266,323.7h2.29v1.87H266v5.5c0,1,.4,1.45,1.47,1.45a4.21,4.21,0,0,0,.81-.09v1.76a4.52,4.52,0,0,1-1.41.2,2.75,2.75,0,0,1-2.95-3v-5.81h-2V323.7h.57a1.48,1.48,0,0,0,1.63-1.63v-1.72H266Z"/><path class="cls-2" d="M272.08,318.2a1.49,1.49,0,1,1-1.47,1.5A1.48,1.48,0,0,1,272.08,318.2Zm-1,16.08V323.7h2v10.58Z"/><path class="cls-2" d="M286.58,329a5.42,5.42,0,1,1-5.41-5.61A5.34,5.34,0,0,1,286.58,329Zm-2.11,0c0-2.44-1.54-3.76-3.3-3.76s-3.3,1.32-3.3,3.76,1.54,3.79,3.3,3.79S284.47,331.45,284.47,329Z"/><path class="cls-2" d="M291.29,334.28h-2.07V323.7h2v1.52a3.63,3.63,0,0,1,3.26-1.83c2.53,0,3.78,1.83,3.78,4.18v6.71h-2.07v-6.36c0-1.47-.62-2.66-2.46-2.66-1.63,0-2.46,1.3-2.46,2.91Z"/><path class="cls-2" d="M310.71,316.81l1.25,1.1a13.91,13.91,0,0,0,0,18.79l-1.25,1.1a15.27,15.27,0,0,1,0-21Z"/><path class="cls-2" d="M313.73,338.46V323.7h2v1.65a3.9,3.9,0,0,1,3.54-1.89c3.17,0,4.86,2.44,4.86,5.52s-1.83,5.59-4.93,5.59a3.94,3.94,0,0,1-3.43-1.72v5.61Zm5.17-13.18c-1.89,0-3.15,1.58-3.15,3.7s1.25,3.74,3.15,3.74S322,331.16,322,329,320.83,325.28,318.9,325.28Z"/><path class="cls-2" d="M329.32,328.23l2.86-.42c.64-.09.81-.42.81-.79,0-1-.68-1.89-2.29-1.89a2.25,2.25,0,0,0-2.4,2.13l-2-.46a4.08,4.08,0,0,1,4.33-3.43c3.17,0,4.4,1.8,4.4,3.87v5.3a10,10,0,0,0,.13,1.74h-2a7.73,7.73,0,0,1-.11-1.43,3.86,3.86,0,0,1-3.41,1.76,3.3,3.3,0,0,1-3.54-3.17C326.11,329.55,327.5,328.5,329.32,328.23Zm3.67,1.52v-.48l-3.23.48a1.58,1.58,0,0,0-1.54,1.58,1.6,1.6,0,0,0,1.72,1.54A2.77,2.77,0,0,0,333,329.75Z"/><path class="cls-2" d="M344.15,325.79a6.46,6.46,0,0,0-.9-.07c-1.74,0-2.91.92-2.91,3.26v5.3h-2.07V323.7h2v1.85a3.32,3.32,0,0,1,3.17-2,3.92,3.92,0,0,1,.68.07Z"/><path class="cls-2" d="M348.9,328.23l2.86-.42c.64-.09.81-.42.81-.79,0-1-.68-1.89-2.29-1.89a2.25,2.25,0,0,0-2.4,2.13l-2-.46a4.08,4.08,0,0,1,4.33-3.43c3.17,0,4.4,1.8,4.4,3.87v5.3a10,10,0,0,0,.13,1.74h-2a7.73,7.73,0,0,1-.11-1.43,3.86,3.86,0,0,1-3.41,1.76,3.3,3.3,0,0,1-3.54-3.17C345.69,329.55,347.08,328.5,348.9,328.23Zm3.67,1.52v-.48l-3.23.48a1.58,1.58,0,0,0-1.54,1.58,1.6,1.6,0,0,0,1.72,1.54A2.77,2.77,0,0,0,352.58,329.75Z"/><path class="cls-2" d="M357.86,334.28V323.7h2v1.41a3.65,3.65,0,0,1,3.21-1.72,3.3,3.3,0,0,1,3.17,2,3.8,3.8,0,0,1,3.54-2c1.85,0,3.65,1.25,3.65,4v6.87h-2v-6.64a2.13,2.13,0,0,0-2.25-2.42,2.47,2.47,0,0,0-2.44,2.66v6.4h-2.07v-6.64a2.13,2.13,0,0,0-2.25-2.42,2.45,2.45,0,0,0-2.46,2.68v6.38Z"/><path class="cls-2" d="M385.93,331.27a4.8,4.8,0,0,1-4.75,3.34,5.64,5.64,0,0,1-.26-11.24c3.26,0,5.08,2.24,5.08,5.54a4.75,4.75,0,0,1,0,.66h-8a3.14,3.14,0,0,0,3.19,3.21,2.88,2.88,0,0,0,3-2.13Zm-2.09-3.37a2.67,2.67,0,0,0-2.91-2.71,2.85,2.85,0,0,0-2.88,2.71Z"/><path class="cls-2" d="M391.41,323.7h2.29v1.87h-2.29v5.5c0,1,.4,1.45,1.47,1.45a4.21,4.21,0,0,0,.81-.09v1.76a4.52,4.52,0,0,1-1.41.2,2.75,2.75,0,0,1-2.95-3v-5.81h-2V323.7h.57a1.48,1.48,0,0,0,1.63-1.63v-1.72h1.89Z"/><path class="cls-2" d="M405.55,331.27a4.8,4.8,0,0,1-4.75,3.34,5.64,5.64,0,0,1-.26-11.24c3.26,0,5.08,2.24,5.08,5.54a4.75,4.75,0,0,1,0,.66h-8a3.14,3.14,0,0,0,3.19,3.21,2.88,2.88,0,0,0,3-2.13Zm-2.09-3.37a2.67,2.67,0,0,0-2.9-2.71,2.85,2.85,0,0,0-2.88,2.71Z"/><path class="cls-2" d="M414.13,325.79a6.46,6.46,0,0,0-.9-.07c-1.74,0-2.91.92-2.91,3.26v5.3h-2.07V323.7h2v1.85a3.32,3.32,0,0,1,3.17-2,3.92,3.92,0,0,1,.68.07Z"/><path class="cls-2" d="M415.83,337.8l-1.25-1.1a13.91,13.91,0,0,0,0-18.79l1.25-1.1a15.27,15.27,0,0,1,0,21Z"/><path class="cls-2" d="M427.71,326.34a2.13,2.13,0,0,0,2.42-2.22v-3c0-2.73,1.39-4.09,4-4.09h.29v1.65h-.29c-1.63,0-2.16.7-2.16,2.31v3.61a2.6,2.6,0,0,1-2.29,2.71,2.6,2.6,0,0,1,2.29,2.71v3.59c0,1.61.53,2.31,2.16,2.31h.29v1.65h-.29c-2.57,0-4-1.36-4-4.09v-3a2.13,2.13,0,0,0-2.42-2.22Z"/><path class="cls-2" d="M32.5,358.28h-2L38,342.68h2Z"/><path class="cls-2" d="M39,358.28H37l7.55-15.6h2Z"/><path class="cls-2" d="M61.19,356.68a3.54,3.54,0,0,1-3.28,1.89c-3.1,0-5-2.46-5-5.61,0-3,2-5.54,5-5.54a3.25,3.25,0,0,1,3.23,1.78v-6.84h2v14a16.76,16.76,0,0,0,.11,2h-2a8.88,8.88,0,0,1-.11-1.43Zm-3.08.07c1.89,0,3.06-1.65,3.06-3.83s-1.14-3.67-3-3.67S55,350.78,55,353,56.13,356.74,58.11,356.74Z"/><path class="cls-2" d="M76.66,353a5.42,5.42,0,1,1-5.41-5.61A5.34,5.34,0,0,1,76.66,353Zm-2.11,0c0-2.44-1.54-3.76-3.3-3.76s-3.3,1.32-3.3,3.76,1.54,3.79,3.3,3.79S74.54,355.45,74.54,353Z"/><path class="cls-2" d="M88.52,355.27a4.8,4.8,0,0,1-4.75,3.34,5.64,5.64,0,0,1-.26-11.24c3.26,0,5.08,2.24,5.08,5.54a4.67,4.67,0,0,1,0,.66h-8a3.14,3.14,0,0,0,3.19,3.21,2.88,2.88,0,0,0,3-2.13Zm-2.09-3.37a2.67,2.67,0,0,0-2.9-2.71,2.85,2.85,0,0,0-2.88,2.71Z"/><path class="cls-2" d="M92.1,354.87a2.26,2.26,0,0,0,2.46,2c1.17,0,1.8-.66,1.8-1.41s-.48-1.17-1.36-1.36l-1.8-.4a3,3,0,0,1-2.64-3,3.61,3.61,0,0,1,3.76-3.34,3.75,3.75,0,0,1,4,2.84l-1.83.68a2.05,2.05,0,0,0-2.2-1.76,1.6,1.6,0,0,0-1.76,1.41c0,.64.4,1.1,1.21,1.28l1.72.37c1.91.42,2.93,1.58,2.93,3.15s-1.25,3.28-3.87,3.28c-2.9,0-4.14-1.87-4.31-3.08Z"/><path class="cls-2" d="M107.54,354.87a2.26,2.26,0,0,0,2.46,2c1.17,0,1.8-.66,1.8-1.41s-.48-1.17-1.36-1.36l-1.8-.4a3,3,0,0,1-2.64-3,3.61,3.61,0,0,1,3.76-3.34,3.75,3.75,0,0,1,4,2.84l-1.83.68a2.05,2.05,0,0,0-2.2-1.76,1.6,1.6,0,0,0-1.76,1.41c0,.64.4,1.1,1.21,1.28l1.72.37c1.91.42,2.93,1.58,2.93,3.15s-1.25,3.28-3.87,3.28c-2.9,0-4.14-1.87-4.31-3.08Z"/><path class="cls-2" d="M126.44,353a5.42,5.42,0,1,1-5.41-5.61A5.34,5.34,0,0,1,126.44,353Zm-2.11,0c0-2.44-1.54-3.76-3.3-3.76s-3.3,1.32-3.3,3.76,1.54,3.79,3.3,3.79S124.33,355.45,124.33,353Z"/><path class="cls-2" d="M129.08,358.28V347.7h2v1.41a3.65,3.65,0,0,1,3.21-1.72,3.31,3.31,0,0,1,3.17,2,3.8,3.8,0,0,1,3.54-2c1.85,0,3.65,1.25,3.65,4v6.87h-2v-6.64a2.13,2.13,0,0,0-2.24-2.42,2.47,2.47,0,0,0-2.44,2.66v6.4h-2.07v-6.64a2.13,2.13,0,0,0-2.24-2.42,2.45,2.45,0,0,0-2.46,2.68v6.38Z"/><path class="cls-2" d="M157.15,355.27a4.8,4.8,0,0,1-4.75,3.34,5.64,5.64,0,0,1-.26-11.24c3.26,0,5.08,2.24,5.08,5.54a4.67,4.67,0,0,1,0,.66h-8a3.14,3.14,0,0,0,3.19,3.21,2.88,2.88,0,0,0,3-2.13Zm-2.09-3.37a2.67,2.67,0,0,0-2.9-2.71,2.85,2.85,0,0,0-2.88,2.71Z"/><path class="cls-2" d="M162.63,347.7h2.29v1.87h-2.29v5.5c0,1,.4,1.45,1.47,1.45a4.19,4.19,0,0,0,.81-.09v1.76a4.51,4.51,0,0,1-1.41.2,2.75,2.75,0,0,1-2.95-3v-5.81h-2V347.7h.57a1.48,1.48,0,0,0,1.63-1.63v-1.72h1.89Z"/><path class="cls-2" d="M169.74,358.28h-2.07V342.35h2.07v6.58a3.74,3.74,0,0,1,3.21-1.54c2.53,0,3.78,1.83,3.78,4.18v6.71h-2.07v-6.36c0-1.47-.62-2.66-2.46-2.66-1.58,0-2.42,1.23-2.46,2.79Z"/><path class="cls-2" d="M181,342.2a1.49,1.49,0,1,1-1.47,1.5A1.48,1.48,0,0,1,181,342.2Zm-1,16.08V347.7h2v10.58Z"/><path class="cls-2" d="M187.67,358.28H185.6V347.7h2v1.52a3.62,3.62,0,0,1,3.26-1.83c2.53,0,3.79,1.83,3.79,4.18v6.71H192.6v-6.36c0-1.47-.62-2.66-2.46-2.66-1.63,0-2.46,1.3-2.46,2.91Z"/><path class="cls-2" d="M199.2,358.39a2.81,2.81,0,0,0,2.88,2.6c2.22,0,3.23-1.14,3.23-3.43V356a3.52,3.52,0,0,1-3.23,1.74,5.15,5.15,0,0,1,0-10.28,3.34,3.34,0,0,1,3.26,1.67V347.7h2v9.79c0,2.68-1.32,5.3-5.3,5.3a4.63,4.63,0,0,1-4.88-3.94Zm6.21-5.74c0-2-1.23-3.39-3-3.39s-3.06,1.34-3.06,3.39,1.19,3.39,3.06,3.39S205.4,354.7,205.4,352.65Z"/><path class="cls-2" d="M26.28,376.23a2.13,2.13,0,0,0-2.42,2.22v3c0,2.73-1.39,4.09-4,4.09h-.29v-1.65h.29c1.63,0,2.16-.7,2.16-2.31V378a2.6,2.6,0,0,1,2.29-2.71,2.6,2.6,0,0,1-2.29-2.71V369c0-1.61-.53-2.31-2.16-2.31h-.29V365h.29c2.57,0,4,1.36,4,4.09v3a2.13,2.13,0,0,0,2.42,2.22Z"/><path class="cls-2" d="M485.78,119.91v14.83h-2.35V119.91h-5.69v-2.18h13.73v2.18Z"/><path class="cls-2" d="M495.88,134.75h-2.26V117.37h2.26v7.18a4.09,4.09,0,0,1,3.5-1.68c2.76,0,4.13,2,4.13,4.56v7.32h-2.26v-6.94c0-1.61-.67-2.9-2.69-2.9-1.73,0-2.64,1.34-2.69,3Z"/><path class="cls-2" d="M517.17,131.46A5.23,5.23,0,0,1,512,135.1c-3.1,0-5.81-2.26-5.81-6.17,0-3.62,2.62-6.1,5.52-6.1,3.55,0,5.54,2.45,5.54,6a5,5,0,0,1,0,.72h-8.69a3.43,3.43,0,0,0,3.48,3.5,3.14,3.14,0,0,0,3.24-2.33Zm-2.28-3.67a2.91,2.91,0,0,0-3.17-3,3.11,3.11,0,0,0-3.14,3Z"/><path class="cls-2" d="M528.91,128.14l3.12-.46c.7-.1.89-.46.89-.86,0-1.13-.74-2.06-2.5-2.06a2.45,2.45,0,0,0-2.62,2.33l-2.16-.5c.24-2.21,2.23-3.74,4.73-3.74,3.46,0,4.8,2,4.8,4.22v5.78a10.86,10.86,0,0,0,.14,1.9h-2.21a8.46,8.46,0,0,1-.12-1.56,4.21,4.21,0,0,1-3.72,1.92,3.6,3.6,0,0,1-3.86-3.46C525.4,129.58,526.92,128.43,528.91,128.14Zm4,1.66v-.53l-3.53.53a1.73,1.73,0,0,0-1.68,1.73,1.75,1.75,0,0,0,1.87,1.68C531.43,133.21,532.92,132.32,532.92,129.8Z"/><path class="cls-2" d="M540,129c0,2.64,1.66,4.06,3.53,4.06a3.14,3.14,0,0,0,3.22-2.38l2,.86a5.3,5.3,0,0,1-5.21,3.6,6.14,6.14,0,0,1,0-12.26,5,5,0,0,1,5.14,3.67l-2,.86a3,3,0,0,0-3.1-2.45C541.7,124.93,540,126.27,540,129Z"/><path class="cls-2" d="M554.42,123.2h2.5v2h-2.5v6c0,1.06.43,1.58,1.61,1.58a4.58,4.58,0,0,0,.89-.1v1.92a4.93,4.93,0,0,1-1.54.22,3,3,0,0,1-3.22-3.29v-6.34H550v-2h.62a1.62,1.62,0,0,0,1.78-1.78v-1.87h2.06Z"/><path class="cls-2" d="M564.12,135.1c-2.69,0-4.32-2-4.32-4.63V123.2h2.26v6.94c0,1.58.72,3,2.62,3s2.74-1.2,2.74-3v-7h2.26v9.41a19.46,19.46,0,0,0,.12,2.14h-2.16a10.25,10.25,0,0,1-.1-1.39A3.77,3.77,0,0,1,564.12,135.1Z"/><path class="cls-2" d="M576.28,128.14l3.12-.46c.7-.1.89-.46.89-.86,0-1.13-.74-2.06-2.5-2.06a2.45,2.45,0,0,0-2.62,2.33l-2.16-.5c.24-2.21,2.23-3.74,4.73-3.74,3.46,0,4.8,2,4.8,4.22v5.78a10.86,10.86,0,0,0,.14,1.9h-2.21a8.46,8.46,0,0,1-.12-1.56,4.21,4.21,0,0,1-3.72,1.92,3.6,3.6,0,0,1-3.86-3.46C572.78,129.58,574.29,128.43,576.28,128.14Zm4,1.66v-.53l-3.53.53a1.73,1.73,0,0,0-1.68,1.73,1.75,1.75,0,0,0,1.87,1.68C578.8,133.21,580.29,132.32,580.29,129.8Z"/><path class="cls-2" d="M586.05,134.75V117.37h2.26v17.38Z"/><path class="cls-2" d="M603.43,134.75h-2.28l-4.68-11.54H599l3.29,8.9,3.31-8.9H608Z"/><path class="cls-2" d="M612.86,128.14l3.12-.46c.7-.1.89-.46.89-.86,0-1.13-.74-2.06-2.5-2.06a2.45,2.45,0,0,0-2.62,2.33l-2.16-.5c.24-2.21,2.23-3.74,4.73-3.74,3.46,0,4.8,2,4.8,4.22v5.78a10.86,10.86,0,0,0,.14,1.9h-2.21a8.46,8.46,0,0,1-.12-1.56,4.21,4.21,0,0,1-3.72,1.92,3.6,3.6,0,0,1-3.86-3.46C609.36,129.58,610.87,128.43,612.86,128.14Zm4,1.66v-.53l-3.53.53a1.73,1.73,0,0,0-1.68,1.73,1.75,1.75,0,0,0,1.87,1.68C615.38,133.21,616.87,132.32,616.87,129.8Z"/><path class="cls-2" d="M622.63,134.75V117.37h2.26v17.38Z"/><path class="cls-2" d="M632.8,135.1c-2.69,0-4.32-2-4.32-4.63V123.2h2.26v6.94c0,1.58.72,3,2.62,3s2.74-1.2,2.74-3v-7h2.26v9.41a19.21,19.21,0,0,0,.12,2.14h-2.16a10.08,10.08,0,0,1-.1-1.39A3.77,3.77,0,0,1,632.8,135.1Z"/><path class="cls-2" d="M652.12,131.46a5.23,5.23,0,0,1-5.18,3.65c-3.1,0-5.81-2.26-5.81-6.17,0-3.62,2.62-6.1,5.52-6.1,3.55,0,5.54,2.45,5.54,6a5.16,5.16,0,0,1,0,.72h-8.69a3.43,3.43,0,0,0,3.48,3.5,3.14,3.14,0,0,0,3.24-2.33Zm-2.28-3.67a2.91,2.91,0,0,0-3.17-3,3.11,3.11,0,0,0-3.14,3Z"/><path class="cls-2" d="M656,131a2.46,2.46,0,0,0,2.69,2.16c1.27,0,2-.72,2-1.54s-.53-1.27-1.49-1.49l-2-.43a3.28,3.28,0,0,1-2.88-3.24,3.93,3.93,0,0,1,4.1-3.65c3.17,0,4.15,2.06,4.39,3.1l-2,.74a2.24,2.24,0,0,0-2.4-1.92,1.74,1.74,0,0,0-1.92,1.54c0,.7.43,1.2,1.32,1.39l1.87.41c2.09.46,3.19,1.73,3.19,3.43s-1.37,3.58-4.22,3.58c-3.17,0-4.51-2-4.7-3.36Z"/><path class="cls-2" d="M671.92,139.31V123.2h2.18V125a4.26,4.26,0,0,1,3.86-2.06c3.46,0,5.3,2.66,5.3,6s-2,6.1-5.38,6.1a4.29,4.29,0,0,1-3.74-1.87v6.12Zm5.64-14.38c-2.06,0-3.43,1.73-3.43,4s1.37,4.08,3.43,4.08S681,131.34,681,129,679.68,124.93,677.56,124.93Z"/><path class="cls-2" d="M688.94,128.14l3.12-.46c.7-.1.89-.46.89-.86,0-1.13-.74-2.06-2.5-2.06a2.45,2.45,0,0,0-2.62,2.33l-2.16-.5c.24-2.21,2.23-3.74,4.73-3.74,3.46,0,4.8,2,4.8,4.22v5.78a10.86,10.86,0,0,0,.14,1.9h-2.21a8.49,8.49,0,0,1-.12-1.56,4.21,4.21,0,0,1-3.72,1.92,3.6,3.6,0,0,1-3.86-3.46C685.43,129.58,686.95,128.43,688.94,128.14Zm4,1.66v-.53l-3.53.53a1.73,1.73,0,0,0-1.68,1.73,1.75,1.75,0,0,0,1.87,1.68C691.46,133.21,692.95,132.32,692.95,129.8Z"/><path class="cls-2" d="M699.67,131a2.46,2.46,0,0,0,2.69,2.16c1.27,0,2-.72,2-1.54s-.53-1.27-1.49-1.49l-2-.43a3.28,3.28,0,0,1-2.88-3.24,3.93,3.93,0,0,1,4.1-3.65c3.17,0,4.15,2.06,4.39,3.1l-2,.74a2.24,2.24,0,0,0-2.4-1.92,1.74,1.74,0,0,0-1.92,1.54c0,.7.43,1.2,1.32,1.39l1.87.41c2.09.46,3.19,1.73,3.19,3.43s-1.37,3.58-4.22,3.58c-3.17,0-4.51-2-4.71-3.36Z"/><path class="cls-2" d="M710.51,131a2.46,2.46,0,0,0,2.69,2.16c1.27,0,2-.72,2-1.54s-.53-1.27-1.49-1.49l-2-.43a3.28,3.28,0,0,1-2.88-3.24,3.93,3.93,0,0,1,4.1-3.65c3.17,0,4.15,2.06,4.39,3.1l-2,.74a2.24,2.24,0,0,0-2.4-1.92A1.74,1.74,0,0,0,711,126.3c0,.7.43,1.2,1.32,1.39l1.87.41c2.09.46,3.19,1.73,3.19,3.43s-1.37,3.58-4.22,3.58c-3.17,0-4.51-2-4.71-3.36Z"/><path class="cls-2" d="M730.34,131.46a5.23,5.23,0,0,1-5.18,3.65c-3.1,0-5.81-2.26-5.81-6.17,0-3.62,2.62-6.1,5.52-6.1,3.55,0,5.54,2.45,5.54,6a5,5,0,0,1,0,.72h-8.69a3.43,3.43,0,0,0,3.48,3.5,3.15,3.15,0,0,0,3.24-2.33Zm-2.28-3.67a2.91,2.91,0,0,0-3.17-3,3.11,3.11,0,0,0-3.14,3Z"/><path class="cls-2" d="M741.38,133a3.86,3.86,0,0,1-3.58,2.06c-3.38,0-5.47-2.69-5.47-6.12,0-3.26,2.21-6,5.47-6a3.55,3.55,0,0,1,3.53,1.94v-7.46h2.23v15.24a18.16,18.16,0,0,0,.12,2.14H741.5a9.69,9.69,0,0,1-.12-1.56Zm-3.36.07c2.06,0,3.34-1.8,3.34-4.18s-1.25-4-3.31-4-3.41,1.68-3.41,4.06S735.86,133.06,738,133.06Z"/><path class="cls-2" d="M754.51,117.2a1.62,1.62,0,1,1-1.61,1.63A1.62,1.62,0,0,1,754.51,117.2Zm-1.1,17.55V123.2h2.23v11.54Z"/><path class="cls-2" d="M761.73,134.75h-2.26V123.2h2.21v1.66a4,4,0,0,1,3.55-2c2.76,0,4.13,2,4.13,4.56v7.32h-2.26v-6.94c0-1.61-.67-2.9-2.69-2.9-1.78,0-2.69,1.42-2.69,3.17Z"/><path class="cls-2" d="M776,123.2h2.5v2H776v6c0,1.06.43,1.58,1.61,1.58a4.57,4.57,0,0,0,.89-.1v1.92a4.92,4.92,0,0,1-1.54.22,3,3,0,0,1-3.22-3.29v-6.34h-2.21v-2h.62a1.61,1.61,0,0,0,1.78-1.78v-1.87H776Z"/><path class="cls-2" d="M792.21,129a5.91,5.91,0,1,1-5.91-6.12A5.83,5.83,0,0,1,792.21,129Zm-2.3,0c0-2.66-1.68-4.1-3.6-4.1s-3.6,1.44-3.6,4.1,1.68,4.13,3.6,4.13S789.91,131.65,789.91,129Z"/><path class="cls-2" d="M804.11,123.2h2.5v2h-2.5v6c0,1.06.43,1.58,1.61,1.58a4.57,4.57,0,0,0,.89-.1v1.92a4.92,4.92,0,0,1-1.54.22,3,3,0,0,1-3.22-3.29v-6.34h-2.21v-2h.62a1.61,1.61,0,0,0,1.78-1.78v-1.87h2.06Z"/><path class="cls-2" d="M811.87,134.75h-2.26V117.37h2.26v7.18a4.08,4.08,0,0,1,3.5-1.68c2.76,0,4.13,2,4.13,4.56v7.32h-2.26v-6.94c0-1.61-.67-2.9-2.69-2.9-1.73,0-2.64,1.34-2.69,3Z"/><path class="cls-2" d="M833.15,131.46A5.23,5.23,0,0,1,828,135.1c-3.1,0-5.81-2.26-5.81-6.17,0-3.62,2.62-6.1,5.52-6.1,3.55,0,5.54,2.45,5.54,6a5,5,0,0,1,0,.72h-8.69a3.43,3.43,0,0,0,3.48,3.5,3.15,3.15,0,0,0,3.24-2.33Zm-2.28-3.67a2.91,2.91,0,0,0-3.17-3,3.11,3.11,0,0,0-3.14,3Z"/><path class="cls-2" d="M482.44,154v9.5h-2.33V154H478v-2h2.14v-1.94a3.66,3.66,0,0,1,3.79-4,2.91,2.91,0,0,1,1.34.24v2a2.6,2.6,0,0,0-1-.14,1.73,1.73,0,0,0-1.82,2V152h2.78v2Z"/><path class="cls-2" d="M491.73,163.9c-2.69,0-4.32-2-4.32-4.63V152h2.26v6.94c0,1.58.72,3,2.62,3s2.74-1.2,2.74-3v-7h2.26v9.41a19.46,19.46,0,0,0,.12,2.14h-2.16a10.25,10.25,0,0,1-.1-1.39A3.77,3.77,0,0,1,491.73,163.9Z"/><path class="cls-2" d="M503.37,163.54h-2.26V152h2.21v1.66a4,4,0,0,1,3.55-2c2.76,0,4.13,2,4.13,4.56v7.32h-2.26v-6.94c0-1.61-.67-2.9-2.69-2.9-1.78,0-2.69,1.42-2.69,3.17Z"/><path class="cls-2" d="M515.95,157.76c0,2.64,1.66,4.06,3.53,4.06a3.14,3.14,0,0,0,3.22-2.38l2,.86a5.3,5.3,0,0,1-5.21,3.6,6.14,6.14,0,0,1,0-12.26,5,5,0,0,1,5.14,3.67l-2,.86a3,3,0,0,0-3.1-2.45C517.63,153.73,515.95,155.07,515.95,157.76Z"/><path class="cls-2" d="M530.35,152h2.5v2h-2.5v6c0,1.06.43,1.58,1.61,1.58a4.57,4.57,0,0,0,.89-.1v1.92a4.92,4.92,0,0,1-1.54.22,3,3,0,0,1-3.22-3.29V154h-2.21v-2h.62a1.62,1.62,0,0,0,1.78-1.78v-1.87h2.06Z"/><path class="cls-2" d="M536.95,146a1.62,1.62,0,1,1-1.61,1.63A1.62,1.62,0,0,1,536.95,146Zm-1.1,17.55V152h2.23v11.54Z"/><path class="cls-2" d="M552.76,157.76a5.91,5.91,0,1,1-5.9-6.12A5.83,5.83,0,0,1,552.76,157.76Zm-2.3,0c0-2.66-1.68-4.1-3.6-4.1s-3.6,1.44-3.6,4.1,1.68,4.13,3.6,4.13S550.46,160.45,550.46,157.76Z"/><path class="cls-2" d="M557.9,163.54h-2.26V152h2.21v1.66a4,4,0,0,1,3.55-2c2.76,0,4.13,2,4.13,4.56v7.32h-2.26v-6.94c0-1.61-.67-2.9-2.69-2.9-1.78,0-2.69,1.42-2.69,3.17Z"/><path class="cls-2" d="M584,152l3,8.69,2.54-8.69h2.38l-3.75,11.54h-2.33l-3.07-8.78-3,8.78h-2.38L573.57,152H576l2.59,8.69,3-8.69Z"/><path class="cls-2" d="M596.42,163.54h-2.26V146.17h2.26v7.18a4.08,4.08,0,0,1,3.5-1.68c2.76,0,4.13,2,4.13,4.56v7.32h-2.26v-6.94c0-1.61-.67-2.9-2.69-2.9-1.73,0-2.64,1.34-2.69,3Z"/><path class="cls-2" d="M617.71,160.26a5.23,5.23,0,0,1-5.18,3.65c-3.1,0-5.81-2.26-5.81-6.17,0-3.62,2.62-6.1,5.52-6.1,3.55,0,5.54,2.45,5.54,6a5.16,5.16,0,0,1,0,.72H609a3.43,3.43,0,0,0,3.48,3.5,3.14,3.14,0,0,0,3.24-2.33Zm-2.28-3.67a2.91,2.91,0,0,0-3.17-3,3.11,3.11,0,0,0-3.14,3Z"/><path class="cls-2" d="M622.91,163.54h-2.26V152h2.21v1.66a4,4,0,0,1,3.55-2c2.76,0,4.13,2,4.13,4.56v7.32h-2.26v-6.94c0-1.61-.67-2.9-2.69-2.9-1.78,0-2.69,1.42-2.69,3.17Z"/><path class="cls-2" d="M643.17,152h2.5v2h-2.5v6c0,1.06.43,1.58,1.61,1.58a4.57,4.57,0,0,0,.89-.1v1.92a4.92,4.92,0,0,1-1.54.22,3,3,0,0,1-3.22-3.29V154h-2.21v-2h.62a1.62,1.62,0,0,0,1.78-1.78v-1.87h2.06Z"/><path class="cls-2" d="M650.92,163.54h-2.26V146.17h2.26v7.18a4.09,4.09,0,0,1,3.5-1.68c2.76,0,4.13,2,4.13,4.56v7.32H656.3v-6.94c0-1.61-.67-2.9-2.69-2.9-1.73,0-2.64,1.34-2.69,3Z"/><path class="cls-2" d="M672.21,160.26A5.23,5.23,0,0,1,667,163.9c-3.1,0-5.81-2.26-5.81-6.17,0-3.62,2.62-6.1,5.52-6.1,3.55,0,5.54,2.45,5.54,6a5,5,0,0,1,0,.72h-8.69a3.43,3.43,0,0,0,3.48,3.5,3.14,3.14,0,0,0,3.24-2.33Zm-2.28-3.67a2.91,2.91,0,0,0-3.17-3,3.11,3.11,0,0,0-3.14,3Z"/><path class="cls-2" d="M684.19,154v9.5h-2.33V154h-2.14v-2h2.14v-1.94a3.66,3.66,0,0,1,3.79-4,2.91,2.91,0,0,1,1.34.24v2a2.61,2.61,0,0,0-1-.14,1.73,1.73,0,0,0-1.82,2V152H687v2Z"/><path class="cls-2" d="M693.47,163.9c-2.69,0-4.32-2-4.32-4.63V152h2.26v6.94c0,1.58.72,3,2.62,3s2.74-1.2,2.74-3v-7H699v9.41a19.46,19.46,0,0,0,.12,2.14H697a10.25,10.25,0,0,1-.1-1.39A3.77,3.77,0,0,1,693.47,163.9Z"/><path class="cls-2" d="M705.11,163.54h-2.26V152h2.21v1.66a4,4,0,0,1,3.55-2c2.76,0,4.13,2,4.13,4.56v7.32h-2.26v-6.94c0-1.61-.67-2.9-2.69-2.9-1.78,0-2.69,1.42-2.69,3.17Z"/><path class="cls-2" d="M717.69,157.76c0,2.64,1.66,4.06,3.53,4.06a3.14,3.14,0,0,0,3.22-2.38l2,.86a5.3,5.3,0,0,1-5.21,3.6,6.14,6.14,0,0,1,0-12.26,5,5,0,0,1,5.14,3.67l-2,.86a3,3,0,0,0-3.1-2.45C719.37,153.73,717.69,155.07,717.69,157.76Z"/><path class="cls-2" d="M732.09,152h2.5v2h-2.5v6c0,1.06.43,1.58,1.61,1.58a4.57,4.57,0,0,0,.89-.1v1.92a4.92,4.92,0,0,1-1.54.22,3,3,0,0,1-3.22-3.29V154h-2.21v-2h.62a1.61,1.61,0,0,0,1.78-1.78v-1.87h2.06Z"/><path class="cls-2" d="M738.69,146a1.62,1.62,0,1,1-1.61,1.63A1.62,1.62,0,0,1,738.69,146Zm-1.1,17.55V152h2.23v11.54Z"/><path class="cls-2" d="M754.51,157.76a5.91,5.91,0,1,1-5.91-6.12A5.83,5.83,0,0,1,754.51,157.76Zm-2.3,0c0-2.66-1.68-4.1-3.6-4.1s-3.6,1.44-3.6,4.1,1.68,4.13,3.6,4.13S752.2,160.45,752.2,157.76Z"/><path class="cls-2" d="M759.64,163.54h-2.26V152h2.21v1.66a4,4,0,0,1,3.55-2c2.76,0,4.13,2,4.13,4.56v7.32H765v-6.94c0-1.61-.67-2.9-2.69-2.9-1.78,0-2.69,1.42-2.69,3.17Z"/><path class="cls-2" d="M778,146a1.62,1.62,0,1,1-1.61,1.63A1.62,1.62,0,0,1,778,146Zm-1.1,17.55V152h2.23v11.54Z"/><path class="cls-2" d="M783.9,159.82a2.46,2.46,0,0,0,2.69,2.16c1.27,0,2-.72,2-1.54s-.53-1.27-1.49-1.49l-2-.43a3.28,3.28,0,0,1-2.88-3.24,3.93,3.93,0,0,1,4.1-3.65c3.17,0,4.15,2.06,4.39,3.1l-2,.74a2.24,2.24,0,0,0-2.4-1.92,1.74,1.74,0,0,0-1.92,1.54c0,.7.43,1.2,1.32,1.39l1.87.41c2.09.46,3.19,1.73,3.19,3.43s-1.37,3.58-4.22,3.58c-3.17,0-4.51-2-4.71-3.36Z"/><path class="cls-2" d="M801.14,157.76c0,2.64,1.66,4.06,3.53,4.06a3.14,3.14,0,0,0,3.22-2.38l2,.86a5.3,5.3,0,0,1-5.21,3.6,6.14,6.14,0,0,1,0-12.26,5,5,0,0,1,5.14,3.67l-2,.86a3,3,0,0,0-3.1-2.45C802.82,153.73,801.14,155.07,801.14,157.76Z"/><path class="cls-2" d="M815.18,156.94l3.12-.46c.7-.1.89-.46.89-.86,0-1.13-.74-2.06-2.5-2.06a2.45,2.45,0,0,0-2.62,2.33l-2.16-.5c.24-2.21,2.23-3.74,4.73-3.74,3.46,0,4.8,2,4.8,4.22v5.78a10.86,10.86,0,0,0,.14,1.9h-2.21a8.49,8.49,0,0,1-.12-1.56,4.21,4.21,0,0,1-3.72,1.92,3.6,3.6,0,0,1-3.86-3.46C811.67,158.38,813.18,157.23,815.18,156.94Zm4,1.66v-.53l-3.53.53a1.73,1.73,0,0,0-1.68,1.73,1.75,1.75,0,0,0,1.87,1.68C817.7,162,819.18,161.12,819.18,158.6Z"/><path class="cls-2" d="M824.94,163.54V146.17h2.26v17.38Z"/><path class="cls-2" d="M831,163.54V146.17h2.26v17.38Z"/><path class="cls-2" d="M847.19,160.26A5.23,5.23,0,0,1,842,163.9c-3.1,0-5.81-2.26-5.81-6.17,0-3.62,2.62-6.1,5.52-6.1,3.55,0,5.54,2.45,5.54,6a5,5,0,0,1,0,.72h-8.69a3.43,3.43,0,0,0,3.48,3.5,3.15,3.15,0,0,0,3.24-2.33Zm-2.28-3.67a2.91,2.91,0,0,0-3.17-3,3.11,3.11,0,0,0-3.14,3Z"/><path class="cls-2" d="M858.23,161.79a3.86,3.86,0,0,1-3.58,2.06c-3.38,0-5.47-2.69-5.47-6.12,0-3.26,2.21-6,5.47-6a3.55,3.55,0,0,1,3.53,1.94v-7.46h2.23v15.24a18.16,18.16,0,0,0,.12,2.14h-2.18a9.69,9.69,0,0,1-.12-1.56Zm-3.36.07c2.06,0,3.34-1.8,3.34-4.18s-1.25-4-3.31-4-3.41,1.68-3.41,4.06S852.71,161.86,854.87,161.86Z"/><path class="cls-2" d="M865.67,160.33a1.67,1.67,0,0,1,1.68,1.68,1.65,1.65,0,0,1-1.68,1.66A1.63,1.63,0,0,1,864,162,1.65,1.65,0,0,1,865.67,160.33Z"/><path class="cls-2" d="M479.48,286.28v-15.6H489v2h-7.33v4.8h6.64v2h-6.64v4.77H489v2Z"/><path class="cls-2" d="M494.44,280.89l-3.81-5.19h2.51l2.6,3.72,2.55-3.72h2.44L497,280.89c.64.86,3.26,4.53,3.89,5.39h-2.49l-2.73-3.89L493,286.28H490.5Z"/><path class="cls-2" d="M504.25,275.59a1.53,1.53,0,0,1,1.54,1.54,1.51,1.51,0,0,1-1.54,1.52,1.49,1.49,0,0,1-1.52-1.52A1.51,1.51,0,0,1,504.25,275.59Zm0,7.75a1.53,1.53,0,0,1,1.54,1.54,1.51,1.51,0,0,1-1.54,1.52,1.49,1.49,0,0,1-1.52-1.52A1.51,1.51,0,0,1,504.27,283.33Z"/><path class="cls-4" d="M486.67,332.68a3.54,3.54,0,0,1-3.28,1.89c-3.1,0-5-2.46-5-5.61,0-3,2-5.54,5-5.54a3.25,3.25,0,0,1,3.23,1.78v-6.84h2v14a16.93,16.93,0,0,0,.11,2h-2a8.86,8.86,0,0,1-.11-1.43Zm-3.08.07c1.89,0,3.06-1.65,3.06-3.83s-1.14-3.67-3-3.67-3.12,1.54-3.12,3.72S481.61,332.74,483.59,332.74Z"/><path class="cls-4" d="M502.14,329a5.42,5.42,0,1,1-5.41-5.61A5.34,5.34,0,0,1,502.14,329ZM500,329c0-2.44-1.54-3.76-3.3-3.76s-3.3,1.32-3.3,3.76,1.54,3.79,3.3,3.79S500,331.45,500,329Z"/><path class="cls-4" d="M513,322.91a3.16,3.16,0,0,0-3.3-2.66,2.76,2.76,0,0,0-3,2.6,2.26,2.26,0,0,0,2,2.27l2.33.51c2.6.57,4,2.2,4,4.38,0,2.42-2.07,4.62-5.39,4.62-3.76,0-5.54-2.42-5.83-4.64l2.07-.66a3.55,3.55,0,0,0,3.74,3.34c2.16,0,3.21-1.12,3.21-2.49a2.54,2.54,0,0,0-2.33-2.42l-2.22-.48c-2.22-.48-3.81-1.94-3.81-4.27a5,5,0,0,1,5.15-4.64c3.52,0,4.93,2.18,5.28,3.87Z"/><path class="cls-4" d="M527.55,329a5.42,5.42,0,1,1-5.41-5.61A5.34,5.34,0,0,1,527.55,329Zm-2.11,0c0-2.44-1.54-3.76-3.3-3.76s-3.3,1.32-3.3,3.76,1.54,3.79,3.3,3.79S525.44,331.45,525.44,329Z"/><path class="cls-4" d="M530.19,334.28V323.7h2v1.41a3.65,3.65,0,0,1,3.21-1.72,3.31,3.31,0,0,1,3.17,2,3.8,3.8,0,0,1,3.54-2c1.85,0,3.65,1.25,3.65,4v6.87h-2v-6.64a2.13,2.13,0,0,0-2.24-2.42,2.47,2.47,0,0,0-2.44,2.66v6.4h-2.07v-6.64a2.13,2.13,0,0,0-2.24-2.42,2.45,2.45,0,0,0-2.46,2.68v6.38Z"/><path class="cls-4" d="M558.26,331.27a4.8,4.8,0,0,1-4.75,3.34,5.64,5.64,0,0,1-.26-11.24c3.26,0,5.08,2.24,5.08,5.54a4.6,4.6,0,0,1,0,.66h-8a3.14,3.14,0,0,0,3.19,3.21,2.88,2.88,0,0,0,3-2.13Zm-2.09-3.37a2.67,2.67,0,0,0-2.9-2.71,2.85,2.85,0,0,0-2.88,2.71Z"/><path class="cls-4" d="M563.74,323.7H566v1.87h-2.29v5.5c0,1,.4,1.45,1.47,1.45a4.19,4.19,0,0,0,.81-.09v1.76a4.51,4.51,0,0,1-1.41.2,2.75,2.75,0,0,1-2.95-3v-5.81h-2V323.7h.57a1.48,1.48,0,0,0,1.63-1.63v-1.72h1.89Z"/><path class="cls-4" d="M570.85,334.28h-2.07V318.35h2.07v6.58a3.74,3.74,0,0,1,3.21-1.54c2.53,0,3.79,1.83,3.79,4.18v6.71h-2.07v-6.36c0-1.47-.62-2.66-2.46-2.66-1.58,0-2.42,1.23-2.46,2.79Z"/><path class="cls-4" d="M582.15,318.2a1.49,1.49,0,1,1-1.47,1.5A1.48,1.48,0,0,1,582.15,318.2Zm-1,16.08V323.7h2v10.58Z"/><path class="cls-4" d="M588.78,334.28h-2.07V323.7h2v1.52a3.62,3.62,0,0,1,3.26-1.83c2.53,0,3.79,1.83,3.79,4.18v6.71h-2.07v-6.36c0-1.47-.62-2.66-2.46-2.66-1.63,0-2.46,1.3-2.46,2.91Z"/><path class="cls-4" d="M600.3,334.39a2.81,2.81,0,0,0,2.88,2.6c2.22,0,3.23-1.14,3.23-3.43V332a3.53,3.53,0,0,1-3.23,1.74,5.15,5.15,0,0,1,0-10.28,3.34,3.34,0,0,1,3.26,1.67V323.7h2v9.79c0,2.68-1.32,5.3-5.3,5.3a4.63,4.63,0,0,1-4.88-3.94Zm6.21-5.74c0-2-1.23-3.39-3-3.39s-3.06,1.34-3.06,3.39,1.19,3.39,3.06,3.39S606.51,330.7,606.51,328.65Z"/><path class="cls-2" d="M615.42,316.81l1.25,1.1a13.91,13.91,0,0,0,0,18.79l-1.25,1.1a15.27,15.27,0,0,1,0-21Z"/><path class="cls-2" d="M620.87,328.23l2.86-.42c.64-.09.81-.42.81-.79,0-1-.68-1.89-2.29-1.89a2.25,2.25,0,0,0-2.4,2.13l-2-.46a4.08,4.08,0,0,1,4.33-3.43c3.17,0,4.4,1.8,4.4,3.87v5.3a10,10,0,0,0,.13,1.74h-2a7.76,7.76,0,0,1-.11-1.43,3.86,3.86,0,0,1-3.41,1.76,3.3,3.3,0,0,1-3.54-3.17C617.66,329.55,619,328.5,620.87,328.23Zm3.67,1.52v-.48l-3.23.48a1.58,1.58,0,0,0-1.54,1.58,1.6,1.6,0,0,0,1.72,1.54A2.77,2.77,0,0,0,624.55,329.75Z"/><path class="cls-2" d="M635.7,325.79a6.47,6.47,0,0,0-.9-.07c-1.74,0-2.9.92-2.9,3.26v5.3h-2.07V323.7h2v1.85a3.31,3.31,0,0,1,3.17-2,3.94,3.94,0,0,1,.68.07Z"/><path class="cls-2" d="M639,334.39a2.81,2.81,0,0,0,2.88,2.6c2.22,0,3.23-1.14,3.23-3.43V332a3.52,3.52,0,0,1-3.23,1.74,5.15,5.15,0,0,1,0-10.28,3.34,3.34,0,0,1,3.26,1.67V323.7h2v9.79c0,2.68-1.32,5.3-5.3,5.3a4.63,4.63,0,0,1-4.88-3.94Zm6.21-5.74c0-2-1.23-3.39-3-3.39s-3.06,1.34-3.06,3.39,1.19,3.39,3.06,3.39S645.23,330.7,645.23,328.65Z"/><path class="cls-2" d="M654.25,334.61a3.91,3.91,0,0,1-4-4.25V323.7h2.07v6.36c0,1.45.66,2.73,2.4,2.73a2.39,2.39,0,0,0,2.51-2.71V323.7h2.07v8.63a17.8,17.8,0,0,0,.11,2h-2a9.38,9.38,0,0,1-.09-1.28A3.45,3.45,0,0,1,654.25,334.61Z"/><path class="cls-2" d="M662.85,334.28V323.7h2v1.41a3.65,3.65,0,0,1,3.21-1.72,3.3,3.3,0,0,1,3.17,2,3.8,3.8,0,0,1,3.54-2c1.85,0,3.65,1.25,3.65,4v6.87h-2v-6.64a2.13,2.13,0,0,0-2.24-2.42,2.47,2.47,0,0,0-2.44,2.66v6.4H669.6v-6.64a2.13,2.13,0,0,0-2.25-2.42,2.45,2.45,0,0,0-2.46,2.68v6.38Z"/><path class="cls-2" d="M690.92,331.27a4.8,4.8,0,0,1-4.75,3.34,5.64,5.64,0,0,1-.26-11.24c3.26,0,5.08,2.24,5.08,5.54a4.75,4.75,0,0,1,0,.66h-8a3.14,3.14,0,0,0,3.19,3.21,2.88,2.88,0,0,0,3-2.13Zm-2.09-3.37a2.67,2.67,0,0,0-2.9-2.71A2.85,2.85,0,0,0,683,327.9Z"/><path class="cls-2" d="M695.69,334.28h-2.07V323.7h2v1.52a3.63,3.63,0,0,1,3.26-1.83c2.53,0,3.78,1.83,3.78,4.18v6.71h-2.07v-6.36c0-1.47-.62-2.66-2.46-2.66-1.63,0-2.46,1.3-2.46,2.91Z"/><path class="cls-2" d="M708.76,323.7h2.29v1.87h-2.29v5.5c0,1,.4,1.45,1.47,1.45a4.21,4.21,0,0,0,.81-.09v1.76a4.52,4.52,0,0,1-1.41.2,2.75,2.75,0,0,1-2.95-3v-5.81h-2V323.7h.57a1.48,1.48,0,0,0,1.63-1.63v-1.72h1.89Z"/><path class="cls-2" d="M713.51,337.8l-1.25-1.1a13.91,13.91,0,0,0,0-18.79l1.25-1.1a15.27,15.27,0,0,1,0,21Z"/><path class="cls-2" d="M921.5,420H1.5A1.5,1.5,0,0,1,0,418.5V89a1.5,1.5,0,0,1,1.5-1.5h920A1.5,1.5,0,0,1,923,89V418.5A1.5,1.5,0,0,1,921.5,420ZM3,417H920V90.52H3Z"/><rect class="cls-2" x="3.5" y="248.16" width="916" height="3"/><rect class="cls-2" x="458" y="1.5" width="3" height="416.5"/></svg>