<svg id="Layer_1" data-name="Layer 1" xmlns="http://www.w3.org/2000/svg" viewBox="0 0 739.62 469.5"><defs><style>.cls-1{fill:#ececec;}.cls-2{fill:#231f20;}.cls-3{fill:#fff;}</style></defs><title>Slide-5-Funnel-Chart</title><polygon class="cls-1" points="354.83 152.36 94.17 152.36 124.17 71.03 64.17 71.03 5.5 71.03 35.5 152.36 1.5 152.36 1.5 318.36 260.93 318.36 230.93 399.69 349.59 399.69 319.59 318.36 354.83 318.36 354.83 152.36"/><path class="cls-2" d="M349.59,401.19H230.93a1.5,1.5,0,0,1-1.41-2l29.26-79.31H1.5a1.5,1.5,0,0,1-1.5-1.5v-166a1.5,1.5,0,0,1,1.5-1.5H33.35L4.09,71.54a1.5,1.5,0,0,1,1.41-2H124.17a1.5,1.5,0,0,1,1.41,2L96.32,150.86H354.83a1.5,1.5,0,0,1,1.5,1.5v166a1.5,1.5,0,0,1-1.5,1.5H321.74L351,399.17A1.5,1.5,0,0,1,349.59,401.19Zm-116.51-3H347.44l-29.26-79.31a1.5,1.5,0,0,1,1.41-2h33.74v-163H94.17a1.5,1.5,0,0,1-1.41-2L122,72.52H7.65l29.26,79.31a1.5,1.5,0,0,1-1.41,2H3v163H260.93a1.5,1.5,0,0,1,1.41,2Z"/><path d="M21.35,19.85V0h2.8V19.85h-2.8Z"/><path d="M31.54,19.85H28.91V6.38h2.58V8.32A4.61,4.61,0,0,1,35.63,6c3.22,0,4.82,2.32,4.82,5.32v8.54H37.82V11.76c0-1.88-.78-3.39-3.14-3.39-2.07,0-3.14,1.65-3.14,3.7v7.78Z"/><path d="M44.65,25.17V6.38H47.2v2.1A5,5,0,0,1,51.7,6.08c4,0,6.19,3.11,6.19,7s-2.32,7.11-6.27,7.11A5,5,0,0,1,47.25,18v7.14h-2.6ZM51.23,8.4c-2.41,0-4,2-4,4.7s1.6,4.76,4,4.76,4-2,4-4.76S53.69,8.4,51.23,8.4Z"/><path d="M66,20.27c-3.14,0-5-2.35-5-5.4V6.38H63.6v8.09c0,1.85.84,3.47,3.05,3.47s3.19-1.4,3.19-3.44V6.38h2.63v11a22.62,22.62,0,0,0,.14,2.49H70.1A11.89,11.89,0,0,1,70,18.23,4.39,4.39,0,0,1,66,20.27Z"/><path d="M80.49,6.38H83.4V8.76H80.49v7a1.6,1.6,0,0,0,1.88,1.85,5.32,5.32,0,0,0,1-.11v2.24a5.76,5.76,0,0,1-1.79.25,3.5,3.5,0,0,1-3.75-3.84V8.76H75.28V6.38H76a1.88,1.88,0,0,0,2.07-2.07V2.13h2.41V6.38Z"/><path d="M97,13L92.11,6.38H95.3l3.3,4.73,3.25-4.73H105L100.17,13c0.81,1.09,4.14,5.77,5,6.86H102l-3.47-5-3.42,5H91.94Z"/><path d="M118.35,243.52V223.67h12.07v2.55H121.1v6.38h8.46v2.58H121.1v8.34h-2.74Z"/><path d="M137.14,243.94c-3.14,0-5-2.35-5-5.4v-8.48h2.63v8.09c0,1.85.84,3.47,3.05,3.47s3.19-1.4,3.19-3.44v-8.12h2.63v11a22.6,22.6,0,0,0,.14,2.49h-2.52a11.88,11.88,0,0,1-.11-1.62A4.39,4.39,0,0,1,137.14,243.94Z"/><path d="M150.72,243.52h-2.63V230.05h2.58V232a4.61,4.61,0,0,1,4.14-2.32c3.22,0,4.82,2.32,4.82,5.32v8.54H157v-8.09c0-1.88-.78-3.39-3.14-3.39-2.07,0-3.14,1.65-3.14,3.7v7.78Z"/><path d="M165.39,236.77c0,3.08,1.93,4.73,4.12,4.73a3.66,3.66,0,0,0,3.75-2.77l2.32,1a6.19,6.19,0,0,1-6.08,4.2,6.81,6.81,0,0,1-6.8-7.17c0-4.2,2.94-7.14,6.78-7.14a5.86,5.86,0,0,1,6,4.28l-2.38,1a3.53,3.53,0,0,0-3.61-2.86C167.35,232.07,165.39,233.63,165.39,236.77Z"/><path d="M182.19,230.05h2.91v2.38h-2.91v7a1.6,1.6,0,0,0,1.88,1.85,5.36,5.36,0,0,0,1-.11v2.24a5.76,5.76,0,0,1-1.79.25,3.5,3.5,0,0,1-3.75-3.84v-7.39H177v-2.38h0.73a1.88,1.88,0,0,0,2.07-2.07v-2.18h2.41v4.26Z"/><path d="M189.89,223.05A1.89,1.89,0,1,1,188,225,1.89,1.89,0,0,1,189.89,223.05Zm-1.29,20.47V230.05h2.6v13.47h-2.6Z"/><path d="M208.34,236.77a6.89,6.89,0,1,1-6.89-7.14A6.8,6.8,0,0,1,208.34,236.77Zm-2.69,0c0-3.11-2-4.79-4.2-4.79s-4.2,1.68-4.2,4.79,2,4.82,4.2,4.82S205.66,239.91,205.66,236.77Z"/><path d="M214.34,243.52H211.7V230.05h2.58V232a4.61,4.61,0,0,1,4.14-2.32c3.22,0,4.82,2.32,4.82,5.32v8.54h-2.63v-8.09c0-1.88-.78-3.39-3.14-3.39-2.07,0-3.14,1.65-3.14,3.7v7.78Z"/><path d="M238,232.43v11.09h-2.72V232.43h-2.49v-2.38h2.49v-2.27a4.27,4.27,0,0,1,4.42-4.62,3.39,3.39,0,0,1,1.57.28v2.35a3,3,0,0,0-1.15-.17,2,2,0,0,0-2.13,2.3v2.13h3.25v2.38H238Z"/><path d="M233.15,443.91a10.35,10.35,0,1,1-10,10.33A9.89,9.89,0,0,1,233.15,443.91Zm0,18.17c3.7,0,7.17-2.66,7.17-7.84s-3.47-7.81-7.17-7.81-7.17,2.63-7.17,7.81S229.46,462.08,233.15,462.08Z"/><path d="M251.52,464.61c-3.14,0-5-2.35-5-5.4v-8.48h2.63v8.09c0,1.85.84,3.47,3.05,3.47s3.19-1.4,3.19-3.44v-8.12H258v11a22.63,22.63,0,0,0,.14,2.49h-2.52a11.9,11.9,0,0,1-.11-1.62A4.39,4.39,0,0,1,251.52,464.61Z"/><path d="M266,450.72h2.91v2.38H266v7a1.6,1.6,0,0,0,1.88,1.85,5.28,5.28,0,0,0,1-.11v2.24a5.76,5.76,0,0,1-1.79.25,3.5,3.5,0,0,1-3.75-3.84V453.1h-2.58v-2.38h0.73a1.88,1.88,0,0,0,2.07-2.07v-2.18H266v4.26Z"/><path d="M272.13,469.5V450.72h2.55v2.1a5,5,0,0,1,4.51-2.41c4,0,6.19,3.11,6.19,7s-2.32,7.11-6.27,7.11a5,5,0,0,1-4.37-2.18v7.14h-2.6Zm6.58-16.77c-2.41,0-4,2-4,4.7s1.6,4.76,4,4.76,4-2,4-4.76S281.17,452.73,278.71,452.73Z"/><path d="M293.49,464.61c-3.14,0-5-2.35-5-5.4v-8.48h2.63v8.09c0,1.85.84,3.47,3.05,3.47s3.19-1.4,3.19-3.44v-8.12H300v11a22.63,22.63,0,0,0,.14,2.49h-2.52a11.9,11.9,0,0,1-.11-1.62A4.39,4.39,0,0,1,293.49,464.61Z"/><path d="M308,450.72h2.91v2.38H308v7a1.6,1.6,0,0,0,1.88,1.85,5.28,5.28,0,0,0,1-.11v2.24a5.76,5.76,0,0,1-1.79.25,3.5,3.5,0,0,1-3.75-3.84V453.1h-2.58v-2.38h0.73a1.88,1.88,0,0,0,2.07-2.07v-2.18H308v4.26Z"/><path d="M324.91,453.1v11.09h-2.72V453.1H319.7v-2.38h2.49v-2.27a4.27,4.27,0,0,1,4.42-4.62,3.4,3.4,0,0,1,1.57.28v2.35a3,3,0,0,0-1.15-.17,2,2,0,0,0-2.13,2.3v2.13h3.25v2.38h-3.25Z"/><path d="M335.6,442l1.6,1.4a17.7,17.7,0,0,0,0,23.91l-1.6,1.4A19.43,19.43,0,0,1,335.6,442Z"/><path d="M342.49,457.33l-4.84-6.61h3.19l3.3,4.73,3.25-4.73h3.11l-4.79,6.61c0.81,1.09,4.14,5.77,5,6.86H347.5l-3.47-5-3.42,5h-3.14Z"/><path d="M352.54,468.67l-1.6-1.4a17.7,17.7,0,0,0,0-23.91l1.6-1.4A19.43,19.43,0,0,1,352.54,468.67Z"/><rect class="cls-2" x="59.33" y="31.36" width="3" height="23.9"/><polygon class="cls-2" points="53.35 53.07 60.83 66.03 68.31 53.07 53.35 53.07"/><rect class="cls-2" x="289.67" y="404.69" width="3" height="23.9"/><polygon class="cls-2" points="283.69 426.4 291.17 439.36 298.65 426.4 283.69 426.4"/><rect class="cls-3" x="490.12" y="88.75" width="124" height="48.67"/><path class="cls-2" d="M614.12,138.92h-124a1.5,1.5,0,0,1-1.5-1.5V88.75a1.5,1.5,0,0,1,1.5-1.5h124a1.5,1.5,0,0,1,1.5,1.5v48.67A1.5,1.5,0,0,1,614.12,138.92Zm-122.5-3h121V90.25h-121v45.67Z"/><rect class="cls-3" x="614.12" y="88.75" width="124" height="48.67"/><path class="cls-2" d="M738.12,138.92h-124a1.5,1.5,0,0,1-1.5-1.5V88.75a1.5,1.5,0,0,1,1.5-1.5h124a1.5,1.5,0,0,1,1.5,1.5v48.67A1.5,1.5,0,0,1,738.12,138.92Zm-122.5-3h121V90.25h-121v45.67Z"/><rect class="cls-1" x="490.12" y="137.42" width="124" height="48.67"/><path class="cls-2" d="M614.12,187.59h-124a1.5,1.5,0,0,1-1.5-1.5V137.42a1.5,1.5,0,0,1,1.5-1.5h124a1.5,1.5,0,0,1,1.5,1.5v48.67A1.5,1.5,0,0,1,614.12,187.59Zm-122.5-3h121V138.92h-121v45.67Z"/><rect class="cls-1" x="614.12" y="137.42" width="124" height="48.67"/><path class="cls-2" d="M738.12,187.59h-124a1.5,1.5,0,0,1-1.5-1.5V137.42a1.5,1.5,0,0,1,1.5-1.5h124a1.5,1.5,0,0,1,1.5,1.5v48.67A1.5,1.5,0,0,1,738.12,187.59Zm-122.5-3h121V138.92h-121v45.67Z"/><rect class="cls-3" x="490.12" y="186.09" width="124" height="48.67"/><path class="cls-2" d="M614.12,236.25h-124a1.5,1.5,0,0,1-1.5-1.5V186.09a1.5,1.5,0,0,1,1.5-1.5h124a1.5,1.5,0,0,1,1.5,1.5v48.67A1.5,1.5,0,0,1,614.12,236.25Zm-122.5-3h121V187.59h-121v45.67Z"/><rect class="cls-3" x="614.12" y="186.09" width="124" height="48.67"/><path class="cls-2" d="M738.12,236.25h-124a1.5,1.5,0,0,1-1.5-1.5V186.09a1.5,1.5,0,0,1,1.5-1.5h124a1.5,1.5,0,0,1,1.5,1.5v48.67A1.5,1.5,0,0,1,738.12,236.25Zm-122.5-3h121V187.59h-121v45.67Z"/><rect class="cls-1" x="490.12" y="234.75" width="124" height="48.67"/><path class="cls-2" d="M614.12,284.92h-124a1.5,1.5,0,0,1-1.5-1.5V234.75a1.5,1.5,0,0,1,1.5-1.5h124a1.5,1.5,0,0,1,1.5,1.5v48.67A1.5,1.5,0,0,1,614.12,284.92Zm-122.5-3h121V236.25h-121v45.67Z"/><rect class="cls-1" x="614.12" y="234.75" width="124" height="48.67"/><path class="cls-2" d="M738.12,284.92h-124a1.5,1.5,0,0,1-1.5-1.5V234.75a1.5,1.5,0,0,1,1.5-1.5h124a1.5,1.5,0,0,1,1.5,1.5v48.67A1.5,1.5,0,0,1,738.12,284.92Zm-122.5-3h121V236.25h-121v45.67Z"/><rect class="cls-3" x="490.12" y="283.42" width="124" height="48.67"/><path class="cls-2" d="M614.12,333.59h-124a1.5,1.5,0,0,1-1.5-1.5V283.42a1.5,1.5,0,0,1,1.5-1.5h124a1.5,1.5,0,0,1,1.5,1.5v48.67A1.5,1.5,0,0,1,614.12,333.59Zm-122.5-3h121V284.92h-121v45.67Z"/><rect class="cls-3" x="614.12" y="283.42" width="124" height="48.67"/><path class="cls-2" d="M738.12,333.59h-124a1.5,1.5,0,0,1-1.5-1.5V283.42a1.5,1.5,0,0,1,1.5-1.5h124a1.5,1.5,0,0,1,1.5,1.5v48.67A1.5,1.5,0,0,1,738.12,333.59Zm-122.5-3h121V284.92h-121v45.67Z"/><rect class="cls-1" x="490.12" y="332.09" width="124" height="48.67"/><path class="cls-2" d="M614.12,382.25h-124a1.5,1.5,0,0,1-1.5-1.5V332.09a1.5,1.5,0,0,1,1.5-1.5h124a1.5,1.5,0,0,1,1.5,1.5v48.67A1.5,1.5,0,0,1,614.12,382.25Zm-122.5-3h121V333.59h-121v45.67Z"/><rect class="cls-1" x="614.12" y="332.09" width="124" height="48.67"/><path class="cls-2" d="M738.12,382.25h-124a1.5,1.5,0,0,1-1.5-1.5V332.09a1.5,1.5,0,0,1,1.5-1.5h124a1.5,1.5,0,0,1,1.5,1.5v48.67A1.5,1.5,0,0,1,738.12,382.25Zm-122.5-3h121V333.59h-121v45.67Z"/><path d="M549.69,113.84l-4.9-6.86h4.42c0.48,0.76,2.27,3.33,2.74,4.09l2.72-4.09h4.23l-4.82,6.75,5,7h-4.37l-2.88-4.23c-0.5.76-2.35,3.47-2.83,4.23h-4.2Z"/><path d="M661.55,105.46V107h3.11v3.19h-3.11v10.58H657.8V110.17h-2.3V107h2.3v-1.57a4.75,4.75,0,0,1,5-5.12,5.41,5.41,0,0,1,1.85.28v3.14a4.16,4.16,0,0,0-1.18-.14A1.75,1.75,0,0,0,661.55,105.46Z"/><path d="M672.16,97.82l2.16,2a17,17,0,0,0,0,23.88l-2.16,2A19.41,19.41,0,0,1,672.16,97.82Z"/><path d="M679.39,113.84l-4.9-6.86h4.42c0.48,0.76,2.27,3.33,2.74,4.09l2.72-4.09h4.23l-4.82,6.75,5,7H684.4l-2.88-4.23c-0.5.76-2.35,3.47-2.83,4.23h-4.2Z"/><path d="M691,125.65l-2.16-2a17,17,0,0,0,0-23.88l2.16-2A19.41,19.41,0,0,1,691,125.65Z"/><path d="M540.88,160.86v-2.3h7.59v2.3h-7.59Z"/><path d="M554.26,167.75V155h-4.4V153c2.52-.06,4.26-1.46,4.68-3.42h2.41v18.14h-2.69Z"/><path d="M665,160.86v-2.3h7.59v2.3H665Z"/><path d="M675.1,155.8a6.5,6.5,0,0,1,0-.73c0-3.11,2.3-5.88,6.27-5.88s6.13,2.55,6.13,5.57a6.61,6.61,0,0,1-3.42,5.6l-3.58,2.3a4.45,4.45,0,0,0-2.21,2.55h9.32v2.55H674.87c0.06-3,1.23-5.24,4.31-7.22l3-2c1.71-1.09,2.49-2.38,2.49-3.78a3.13,3.13,0,0,0-3.42-3.19c-2.38,0-3.5,1.65-3.5,3.72,0,0.25,0,.53.06,0.81Z"/><path d="M543.76,202.1a6.79,6.79,0,0,1,11.14,0,14.14,14.14,0,0,1,0,13.16,6.79,6.79,0,0,1-11.14,0A14.14,14.14,0,0,1,543.76,202.1Zm2.69,12.46a4.12,4.12,0,0,0,5.77,0c1.09-1.15,1.6-3.11,1.6-5.88s-0.5-4.73-1.6-5.88a4.12,4.12,0,0,0-5.77,0c-1.09,1.15-1.6,3.11-1.6,5.88S545.36,213.41,546.45,214.56Z"/><path d="M670.67,202.1a6.79,6.79,0,0,1,11.14,0,14.14,14.14,0,0,1,0,13.16,6.79,6.79,0,0,1-11.14,0A14.14,14.14,0,0,1,670.67,202.1Zm2.69,12.46a4.12,4.12,0,0,0,5.77,0c1.09-1.15,1.6-3.11,1.6-5.88s-0.5-4.73-1.6-5.88a4.12,4.12,0,0,0-5.77,0c-1.09,1.15-1.6,3.11-1.6,5.88S672.27,213.41,673.36,214.56Z"/><path d="M549.48,265.75V253h-4.4V251c2.52-.06,4.26-1.46,4.68-3.42h2.41v18.14h-2.69Z"/><path d="M670,253.8a6.5,6.5,0,0,1,0-.73c0-3.11,2.3-5.88,6.27-5.88s6.13,2.55,6.13,5.57a6.61,6.61,0,0,1-3.42,5.6l-3.58,2.3a4.45,4.45,0,0,0-2.21,2.55h9.32v2.55H669.82c0.06-3,1.23-5.24,4.31-7.22l3-2c1.71-1.09,2.49-2.38,2.49-3.78a3.13,3.13,0,0,0-3.42-3.19c-2.38,0-3.5,1.65-3.5,3.72,0,0.25,0,.53.06,0.81Z"/><path d="M543.13,303.8a6.5,6.5,0,0,1,0-.73c0-3.11,2.3-5.88,6.27-5.88s6.13,2.55,6.13,5.57a6.61,6.61,0,0,1-3.42,5.6l-3.58,2.3a4.45,4.45,0,0,0-2.21,2.55h9.32v2.55H542.91c0.06-3,1.23-5.24,4.31-7.22l3-2c1.71-1.09,2.49-2.38,2.49-3.78a3.13,3.13,0,0,0-3.42-3.19c-2.38,0-3.5,1.65-3.5,3.72,0,0.25,0,.53.06,0.81Z"/><path d="M669.19,308.5L677,297.61h3.78v11.51h3.11v2.55h-3.11v4.09h-2.66v-4.09h-8.9V308.5Zm8.9-8.26-6.38,8.88h6.38v-8.88Z"/><path d="M546.55,353.72l5.35-4.93h-8.68v-2.52h12.32v2.46l-5.18,4.79A5.39,5.39,0,0,1,556,359c0,3.05-2.35,5.82-6.58,5.82s-6.58-2.74-6.75-5.71l2.69-.62a3.92,3.92,0,0,0,4,3.92c2.49,0,3.84-1.54,3.84-3.36,0-2.38-1.9-3.39-3.7-3.39a4.9,4.9,0,0,0-1.6.28Z"/><path d="M682,349.1a6.81,6.81,0,0,0-3.25-.78c-3.78,0-6.16,2.77-6.38,6.5a5.47,5.47,0,0,1,4.79-2.35c3.58,0,6.22,2.24,6.22,6.19s-3.16,6.19-6.72,6.19-7.08-2.41-7.08-8.4c0-6.75,4.06-10.58,9.35-10.58a7.13,7.13,0,0,1,3.92,1Zm-5.32,13.36a3.82,3.82,0,1,0-3.92-3.81A3.8,3.8,0,0,0,676.66,362.46Z"/></svg>