<svg id="Layer_1" data-name="Layer 1" xmlns="http://www.w3.org/2000/svg" viewBox="0 0 679.86 340.41"><defs><style>.cls-1{fill:#231f20;}.cls-2{fill:#fff;}</style></defs><title>Slide-13-Global-vs-Local</title><path d="M120.93,340.09l-0.19-2.1a5.3,5.3,0,0,1-4.77,2.41c-3.74,0-7.22-2.73-7.22-7.77a7.34,7.34,0,0,1,7.37-7.75,6.62,6.62,0,0,1,6.59,4.49l-1.87.8a4.7,4.7,0,0,0-4.72-3.4c-2.67,0-5.27,1.91-5.27,5.86s2.52,5.9,5.19,5.9a4.23,4.23,0,0,0,4.6-3.88h-5.17v-1.85h7.12v7.29h-1.66Z"/><path d="M125.56,340.09v-15.2h2v15.2h-2Z"/><path d="M140.38,335a5.17,5.17,0,1,1-5.17-5.35A5.1,5.1,0,0,1,140.38,335Zm-2,0c0-2.33-1.47-3.59-3.15-3.59s-3.15,1.26-3.15,3.59,1.47,3.61,3.15,3.61S138.37,337.38,138.37,335Z"/><path d="M142.9,340.09v-15.2h2v6.53a3.68,3.68,0,0,1,3.34-1.72c3.07,0,4.64,2.35,4.64,5.29s-1.7,5.38-4.7,5.38a3.6,3.6,0,0,1-3.28-1.74v1.47h-2Zm4.93-8.65c-1.74,0-3,1.37-3,3.55s1.26,3.61,3,3.61,3-1.43,3-3.61S149.66,331.44,147.84,331.44Z"/><path d="M157.79,334.32l2.73-.4a0.74,0.74,0,0,0,.78-0.76c0-1-.65-1.81-2.18-1.81a2.14,2.14,0,0,0-2.29,2l-1.89-.44a3.89,3.89,0,0,1,4.14-3.28c3,0,4.2,1.72,4.2,3.7v5.06a9.65,9.65,0,0,0,.13,1.66h-1.93a7.5,7.5,0,0,1-.1-1.37,3.68,3.68,0,0,1-3.25,1.68,3.15,3.15,0,0,1-3.38-3C154.73,335.58,156,334.57,157.79,334.32Zm3.51,1.45v-0.46l-3.09.46a1.51,1.51,0,0,0-1.47,1.51,1.53,1.53,0,0,0,1.64,1.47A2.65,2.65,0,0,0,161.3,335.77Z"/><path d="M166.34,340.09v-15.2h2v15.2h-2Z"/><path d="M186.66,325.21h2.16l-5.73,14.89h-2l-5.61-14.89h2.18l4.49,12.24Z"/><path d="M192,334.32l2.73-.4a0.74,0.74,0,0,0,.78-0.76c0-1-.65-1.81-2.18-1.81a2.14,2.14,0,0,0-2.29,2l-1.89-.44a3.89,3.89,0,0,1,4.14-3.28c3,0,4.2,1.72,4.2,3.7v5.06a9.36,9.36,0,0,0,.13,1.66h-1.93a7.29,7.29,0,0,1-.11-1.37,3.68,3.68,0,0,1-3.25,1.68,3.15,3.15,0,0,1-3.38-3C188.93,335.58,190.26,334.57,192,334.32Zm3.51,1.45v-0.46l-3.09.46a1.51,1.51,0,0,0-1.47,1.51,1.53,1.53,0,0,0,1.64,1.47A2.65,2.65,0,0,0,195.51,335.77Z"/><path d="M206.15,332a6.17,6.17,0,0,0-.86-0.06c-1.66,0-2.77.88-2.77,3.11v5.06h-2V330h1.93v1.76a3.16,3.16,0,0,1,3-1.93,3.77,3.77,0,0,1,.65.06V332Z"/><path d="M209.22,324.75a1.42,1.42,0,1,1-1.41,1.43A1.42,1.42,0,0,1,209.22,324.75Zm-1,15.35V330h2v10.1h-2Z"/><path d="M216,334.32l2.73-.4a0.74,0.74,0,0,0,.78-0.76c0-1-.65-1.81-2.18-1.81a2.14,2.14,0,0,0-2.29,2l-1.89-.44a3.89,3.89,0,0,1,4.14-3.28c3,0,4.2,1.72,4.2,3.7v5.06a9.36,9.36,0,0,0,.13,1.66h-1.93a7.29,7.29,0,0,1-.11-1.37,3.68,3.68,0,0,1-3.25,1.68,3.15,3.15,0,0,1-3.38-3C212.94,335.58,214.26,334.57,216,334.32Zm3.51,1.45v-0.46l-3.09.46a1.51,1.51,0,0,0-1.47,1.51,1.53,1.53,0,0,0,1.64,1.47A2.65,2.65,0,0,0,219.51,335.77Z"/><path d="M224.55,340.09v-15.2h2v6.53a3.69,3.69,0,0,1,3.34-1.72c3.07,0,4.64,2.35,4.64,5.29s-1.7,5.38-4.7,5.38a3.6,3.6,0,0,1-3.28-1.74v1.47h-2Zm4.93-8.65c-1.74,0-3,1.37-3,3.55s1.26,3.61,3,3.61,3-1.43,3-3.61S231.31,331.44,229.48,331.44Z"/><path d="M237,340.09v-15.2h2v15.2h-2Z"/><path d="M251.13,337.22a4.58,4.58,0,0,1-4.54,3.19,5.38,5.38,0,0,1-.25-10.73c3.11,0,4.85,2.14,4.85,5.29a4.51,4.51,0,0,1,0,.63h-7.6a3,3,0,0,0,3,3.07,2.75,2.75,0,0,0,2.83-2Zm-2-3.21a2.55,2.55,0,0,0-2.77-2.58,2.72,2.72,0,0,0-2.75,2.58h5.52Z"/><path d="M254.56,336.84a2.15,2.15,0,0,0,2.35,1.89,1.49,1.49,0,0,0,1.72-1.34,1.4,1.4,0,0,0-1.3-1.3l-1.72-.38a2.87,2.87,0,0,1-2.52-2.83,3.44,3.44,0,0,1,3.59-3.19,3.58,3.58,0,0,1,3.84,2.71l-1.74.65a2,2,0,0,0-2.1-1.68A1.52,1.52,0,0,0,255,332.7a1.24,1.24,0,0,0,1.15,1.22l1.64,0.36c1.83,0.4,2.79,1.51,2.79,3s-1.2,3.13-3.7,3.13c-2.77,0-3.95-1.78-4.12-2.94Z"/><path class="cls-1" d="M609.66,193.65c-14.16,0-27.49-1.27-37.53-3.57-11-2.52-16.57-5.89-16.57-10s5.58-7.48,16.57-10c10-2.3,23.37-3.57,37.53-3.57s27.49,1.27,37.53,3.57c11,2.52,16.57,5.89,16.57,10s-5.58,7.48-16.57,10C637.15,192.38,623.82,193.65,609.66,193.65Zm0-24.15c-31.66,0-51.1,6.16-51.1,10.57s19.44,10.57,51.1,10.57,51.1-6.16,51.1-10.57S641.33,169.5,609.66,169.5Z"/><path class="cls-1" d="M609.66,228.89c-14.16,0-27.49-1.27-37.53-3.57-11-2.52-16.57-5.89-16.57-10h3c0,4.42,19.44,10.57,51.1,10.57s51.1-6.16,51.1-10.57h3c0,4.11-5.58,7.48-16.57,10C637.15,227.62,623.83,228.89,609.66,228.89Z"/><path class="cls-1" d="M609.66,264.13c-14.16,0-27.49-1.27-37.53-3.57-11-2.52-16.57-5.89-16.57-10h3c0,4.42,19.44,10.57,51.1,10.57s51.1-6.16,51.1-10.57h3c0,4.11-5.58,7.48-16.57,10C637.15,262.86,623.83,264.13,609.66,264.13Z"/><path class="cls-1" d="M609.66,299.37c-14.16,0-27.49-1.27-37.53-3.57-11-2.52-16.57-5.89-16.57-10h3c0,4.42,19.44,10.57,51.1,10.57s51.1-6.16,51.1-10.57h3c0,4.11-5.58,7.48-16.57,10C637.15,298.1,623.82,299.37,609.66,299.37Z"/><rect class="cls-1" x="555.56" y="180.08" width="3" height="105.72"/><rect class="cls-1" x="660.77" y="180.08" width="3" height="105.72"/><path d="M540.41,340.09V325.21h2.06v13h7v1.93h-9.09Z"/><path d="M561.09,335a5.17,5.17,0,1,1-5.17-5.35A5.1,5.1,0,0,1,561.09,335Zm-2,0c0-2.33-1.47-3.59-3.15-3.59s-3.15,1.26-3.15,3.59,1.47,3.61,3.15,3.61S559.07,337.39,559.07,335Z"/><path d="M564.79,335c0,2.31,1.45,3.55,3.09,3.55a2.75,2.75,0,0,0,2.81-2.08l1.74,0.76a4.64,4.64,0,0,1-4.56,3.15,5.37,5.37,0,0,1,0-10.73,4.39,4.39,0,0,1,4.49,3.21l-1.79.76a2.65,2.65,0,0,0-2.71-2.14C566.26,331.51,564.79,332.68,564.79,335Z"/><path d="M577.07,334.32l2.73-.4a0.74,0.74,0,0,0,.78-0.76c0-1-.65-1.81-2.18-1.81a2.14,2.14,0,0,0-2.29,2l-1.89-.44a3.89,3.89,0,0,1,4.14-3.28c3,0,4.2,1.72,4.2,3.7v5.06a9.5,9.5,0,0,0,.13,1.66h-1.93a7.41,7.41,0,0,1-.1-1.37,3.68,3.68,0,0,1-3.25,1.68,3.15,3.15,0,0,1-3.38-3C574,335.58,575.33,334.57,577.07,334.32Zm3.51,1.45v-0.46l-3.09.46a1.51,1.51,0,0,0-1.47,1.51,1.53,1.53,0,0,0,1.64,1.47A2.65,2.65,0,0,0,580.58,335.77Z"/><path d="M585.62,340.09v-15.2h2v15.2h-2Z"/><path d="M605.94,325.21h2.16l-5.73,14.89h-2l-5.61-14.89h2.18l4.49,12.24Z"/><path d="M611.28,334.32l2.73-.4a0.74,0.74,0,0,0,.78-0.76c0-1-.65-1.81-2.18-1.81a2.14,2.14,0,0,0-2.29,2l-1.89-.44a3.9,3.9,0,0,1,4.14-3.28c3,0,4.2,1.72,4.2,3.7v5.06a9.65,9.65,0,0,0,.13,1.66H615a7.5,7.5,0,0,1-.1-1.37,3.68,3.68,0,0,1-3.25,1.68,3.15,3.15,0,0,1-3.38-3C608.21,335.58,609.54,334.57,611.28,334.32Zm3.51,1.45v-0.46l-3.09.46a1.51,1.51,0,0,0-1.47,1.51,1.53,1.53,0,0,0,1.64,1.47A2.65,2.65,0,0,0,614.79,335.77Z"/><path d="M625.43,332a6.15,6.15,0,0,0-.86-0.06c-1.66,0-2.77.88-2.77,3.11v5.06h-2V330h1.93v1.76a3.16,3.16,0,0,1,3-1.93,3.73,3.73,0,0,1,.65.06V332Z"/><path d="M628.5,324.75a1.42,1.42,0,1,1-1.41,1.43A1.42,1.42,0,0,1,628.5,324.75Zm-1,15.35V330h2v10.1h-2Z"/><path d="M635.28,334.32l2.73-.4a0.74,0.74,0,0,0,.78-0.76c0-1-.65-1.81-2.18-1.81a2.14,2.14,0,0,0-2.29,2l-1.89-.44a3.9,3.9,0,0,1,4.14-3.28c3,0,4.2,1.72,4.2,3.7v5.06a9.65,9.65,0,0,0,.13,1.66H639a7.5,7.5,0,0,1-.1-1.37,3.68,3.68,0,0,1-3.25,1.68,3.15,3.15,0,0,1-3.38-3C632.22,335.58,633.54,334.57,635.28,334.32Zm3.51,1.45v-0.46l-3.09.46a1.51,1.51,0,0,0-1.47,1.51,1.53,1.53,0,0,0,1.64,1.47A2.65,2.65,0,0,0,638.79,335.77Z"/><path d="M643.83,340.09v-15.2h2v6.53a3.68,3.68,0,0,1,3.34-1.72c3.07,0,4.64,2.35,4.64,5.29s-1.7,5.38-4.7,5.38a3.6,3.6,0,0,1-3.28-1.74v1.47h-2Zm4.93-8.65c-1.74,0-3,1.37-3,3.55s1.26,3.61,3,3.61,3-1.43,3-3.61S650.59,331.44,648.76,331.44Z"/><path d="M656.28,340.09v-15.2h2v15.2h-2Z"/><path d="M670.41,337.22a4.58,4.58,0,0,1-4.54,3.19,5.38,5.38,0,0,1-.25-10.73c3.11,0,4.85,2.14,4.85,5.29a4.36,4.36,0,0,1,0,.63h-7.6a3,3,0,0,0,3,3.07,2.75,2.75,0,0,0,2.83-2Zm-2-3.21a2.55,2.55,0,0,0-2.77-2.58A2.72,2.72,0,0,0,662.9,334h5.52Z"/><path d="M673.84,336.84a2.15,2.15,0,0,0,2.35,1.89,1.49,1.49,0,0,0,1.72-1.34,1.4,1.4,0,0,0-1.3-1.3l-1.72-.38a2.87,2.87,0,0,1-2.52-2.83,3.44,3.44,0,0,1,3.59-3.19,3.58,3.58,0,0,1,3.84,2.71l-1.74.65a2,2,0,0,0-2.1-1.68,1.52,1.52,0,0,0-1.68,1.34,1.24,1.24,0,0,0,1.16,1.22l1.64,0.36c1.83,0.4,2.79,1.51,2.79,3s-1.2,3.13-3.7,3.13c-2.77,0-3.95-1.78-4.12-2.94Z"/><path class="cls-1" d="M315.24,193.65c-14.16,0-27.49-1.27-37.53-3.57-11-2.52-16.57-5.89-16.57-10s5.58-7.48,16.57-10c10-2.3,23.37-3.57,37.53-3.57s27.49,1.27,37.53,3.57c11,2.52,16.57,5.89,16.57,10s-5.58,7.48-16.57,10C342.73,192.38,329.4,193.65,315.24,193.65Zm0-24.15c-31.66,0-51.1,6.16-51.1,10.57s19.44,10.57,51.1,10.57,51.11-6.16,51.11-10.57S346.9,169.5,315.24,169.5Z"/><path class="cls-1" d="M315.24,228.89c-14.16,0-27.49-1.27-37.53-3.57-11-2.52-16.57-5.89-16.57-10h3c0,4.42,19.44,10.57,51.1,10.57s51.11-6.16,51.11-10.57h3c0,4.11-5.58,7.48-16.57,10C342.73,227.62,329.4,228.89,315.24,228.89Z"/><path class="cls-1" d="M315.24,264.13c-14.16,0-27.49-1.27-37.53-3.57-11-2.52-16.57-5.89-16.57-10h3c0,4.42,19.44,10.57,51.1,10.57s51.11-6.16,51.11-10.57h3c0,4.11-5.58,7.48-16.57,10C342.73,262.86,329.4,264.13,315.24,264.13Z"/><path class="cls-1" d="M315.24,299.37c-14.16,0-27.49-1.27-37.53-3.57-11-2.52-16.57-5.89-16.57-10h3c0,4.42,19.44,10.57,51.1,10.57s51.11-6.16,51.11-10.57h3c0,4.11-5.58,7.48-16.57,10C342.73,298.1,329.4,299.37,315.24,299.37Z"/><rect class="cls-1" x="261.13" y="180.08" width="3" height="105.72"/><rect class="cls-1" x="366.34" y="180.08" width="3" height="105.72"/><path class="cls-2" d="M173.24,13.57V119.3c0,6.67-23.55,12.07-52.6,12.07S68,126,68,119.3V13.57"/><path class="cls-1" d="M120.63,132.87c-14.16,0-27.49-1.27-37.53-3.57-11-2.52-16.57-5.89-16.57-10V13.57h3V119.3c0,4.42,19.44,10.57,51.1,10.57s51.1-6.16,51.1-10.57V13.57h3V119.3c0,4.11-5.58,7.48-16.57,10C148.12,131.6,134.79,132.87,120.63,132.87Z"/><ellipse class="cls-2" cx="120.63" cy="13.57" rx="52.6" ry="12.07"/><path class="cls-1" d="M120.63,27.15c-14.16,0-27.49-1.27-37.53-3.57-11-2.52-16.57-5.89-16.57-10S72.1,6.1,83.1,3.57C93.14,1.27,106.47,0,120.63,0s27.49,1.27,37.53,3.57c11,2.52,16.57,5.89,16.57,10s-5.58,7.48-16.57,10C148.12,25.88,134.79,27.15,120.63,27.15Zm0-24.15C89,3,69.53,9.16,69.53,13.57S89,24.15,120.63,24.15s51.1-6.16,51.1-10.57S152.29,3,120.63,3Z"/><path class="cls-1" d="M120.63,62.39c-14.16,0-27.49-1.27-37.53-3.57-11-2.52-16.57-5.89-16.57-10h3c0,4.42,19.44,10.57,51.1,10.57s51.1-6.16,51.1-10.57h3c0,4.11-5.58,7.48-16.57,10C148.12,61.12,134.79,62.39,120.63,62.39Z"/><path class="cls-1" d="M120.63,97.63c-14.16,0-27.49-1.27-37.53-3.57-11-2.52-16.57-5.89-16.57-10h3c0,4.42,19.44,10.57,51.1,10.57s51.1-6.16,51.1-10.57h3c0,4.11-5.58,7.48-16.57,10C148.12,96.36,134.79,97.63,120.63,97.63Z"/><path class="cls-2" d="M303.2,13.57V119.3c0,6.67-23.55,12.07-52.6,12.07S198,126,198,119.3V13.57"/><path class="cls-1" d="M250.59,132.87c-14.16,0-27.49-1.27-37.53-3.57-11-2.52-16.57-5.89-16.57-10V13.57h3V119.3c0,4.42,19.44,10.57,51.1,10.57s51.1-6.16,51.1-10.57V13.57h3V119.3c0,4.11-5.58,7.48-16.57,10C278.08,131.6,264.75,132.87,250.59,132.87Z"/><ellipse class="cls-2" cx="250.59" cy="13.57" rx="52.6" ry="12.07"/><path class="cls-1" d="M250.59,27.15c-14.16,0-27.49-1.27-37.53-3.57-11-2.52-16.57-5.89-16.57-10s5.58-7.48,16.57-10C223.1,1.27,236.43,0,250.59,0s27.49,1.27,37.53,3.57c11,2.52,16.57,5.89,16.57,10s-5.58,7.48-16.57,10C278.08,25.88,264.75,27.15,250.59,27.15Zm0-24.15c-31.66,0-51.1,6.16-51.1,10.57s19.44,10.57,51.1,10.57S301.7,18,301.7,13.57,282.25,3,250.59,3Z"/><path class="cls-1" d="M250.59,62.39c-14.16,0-27.49-1.27-37.53-3.57-11-2.52-16.57-5.89-16.57-10h3c0,4.42,19.44,10.57,51.1,10.57s51.1-6.16,51.1-10.57h3c0,4.11-5.58,7.48-16.57,10C278.08,61.12,264.75,62.39,250.59,62.39Z"/><path class="cls-1" d="M250.59,97.63c-14.16,0-27.49-1.27-37.53-3.57-11-2.52-16.57-5.89-16.57-10h3c0,4.42,19.44,10.57,51.1,10.57s51.1-6.16,51.1-10.57h3c0,4.11-5.58,7.48-16.57,10C278.08,96.36,264.75,97.63,250.59,97.63Z"/><rect class="cls-1" x="173.24" y="66.44" width="24.75" height="3"/><polygon class="cls-1" points="55.6 168.62 52.6 168.62 52.6 148.35 119.13 148.35 119.13 131.37 122.13 131.37 122.13 151.35 55.6 151.35 55.6 168.62"/><polygon class="cls-1" points="187.11 168.62 184.11 168.62 184.11 151.35 120.63 151.35 120.63 148.35 187.11 148.35 187.11 168.62"/><polygon class="cls-1" points="253.72 151.35 185.69 151.35 185.69 148.35 250.72 148.35 250.72 131.37 253.72 131.37 253.72 151.35"/><polygon class="cls-1" points="318.7 168.62 315.7 168.62 315.7 151.35 252.22 151.35 252.22 148.35 318.7 148.35 318.7 168.62"/><path class="cls-1" d="M186.06,193.65c-14.16,0-27.49-1.27-37.53-3.57-11-2.52-16.57-5.89-16.57-10s5.58-7.48,16.57-10c10-2.3,23.37-3.57,37.53-3.57s27.49,1.27,37.53,3.57c11,2.52,16.57,5.89,16.57,10s-5.58,7.48-16.57,10C213.54,192.38,200.22,193.65,186.06,193.65Zm0-24.15c-31.66,0-51.1,6.16-51.1,10.57s19.44,10.57,51.1,10.57,51.1-6.16,51.1-10.57S217.72,169.5,186.06,169.5Z"/><path class="cls-1" d="M186.06,228.89c-14.16,0-27.49-1.27-37.53-3.57-11-2.52-16.57-5.89-16.57-10h3c0,4.42,19.44,10.57,51.1,10.57s51.1-6.16,51.1-10.57h3c0,4.11-5.58,7.48-16.57,10C213.55,227.62,200.22,228.89,186.06,228.89Z"/><path class="cls-1" d="M186.06,264.13c-14.16,0-27.49-1.27-37.53-3.57-11-2.52-16.57-5.89-16.57-10h3c0,4.42,19.44,10.57,51.1,10.57s51.1-6.16,51.1-10.57h3c0,4.11-5.58,7.48-16.57,10C213.55,262.86,200.22,264.13,186.06,264.13Z"/><path class="cls-1" d="M186.06,299.37c-14.16,0-27.49-1.27-37.53-3.57-11-2.52-16.57-5.89-16.57-10h3c0,4.42,19.44,10.57,51.1,10.57s51.1-6.16,51.1-10.57h3c0,4.11-5.58,7.48-16.57,10C213.54,298.1,200.22,299.37,186.06,299.37Z"/><rect class="cls-1" x="131.95" y="180.08" width="3" height="105.72"/><rect class="cls-1" x="237.16" y="180.08" width="3" height="105.72"/><path class="cls-1" d="M54.1,193.65c-14.16,0-27.49-1.27-37.53-3.57-11-2.52-16.57-5.89-16.57-10s5.58-7.48,16.57-10c10-2.3,23.37-3.57,37.53-3.57s27.49,1.27,37.53,3.57c11,2.52,16.57,5.89,16.57,10s-5.58,7.48-16.57,10C81.59,192.38,68.27,193.65,54.1,193.65Zm0-24.15C22.44,169.5,3,175.66,3,180.08s19.44,10.57,51.1,10.57,51.1-6.16,51.1-10.57S85.77,169.5,54.1,169.5Z"/><path class="cls-1" d="M54.1,228.89c-14.16,0-27.49-1.27-37.53-3.57-11-2.52-16.57-5.89-16.57-10H3c0,4.42,19.44,10.57,51.1,10.57s51.1-6.16,51.1-10.57h3c0,4.11-5.58,7.48-16.57,10C81.6,227.62,68.27,228.89,54.1,228.89Z"/><path class="cls-1" d="M54.1,264.13c-14.16,0-27.49-1.27-37.53-3.57C5.58,258,0,254.67,0,250.56H3c0,4.42,19.44,10.57,51.1,10.57s51.1-6.16,51.1-10.57h3c0,4.11-5.58,7.48-16.57,10C81.6,262.86,68.27,264.13,54.1,264.13Z"/><path class="cls-1" d="M54.1,299.37c-14.16,0-27.49-1.27-37.53-3.57C5.58,293.28,0,289.91,0,285.8H3c0,4.42,19.44,10.57,51.1,10.57s51.1-6.16,51.1-10.57h3c0,4.11-5.58,7.48-16.57,10C81.59,298.1,68.27,299.37,54.1,299.37Z"/><rect class="cls-1" y="180.08" width="3" height="105.72"/><rect class="cls-1" x="105.21" y="180.08" width="3" height="105.72"/></svg>