<svg id="Layer_1" data-name="Layer 1" xmlns="http://www.w3.org/2000/svg" viewBox="0 0 438.92 304.92"><defs><style>.cls-1{fill:#f6f6f6;}.cls-2{fill:#231f20;}</style></defs><title>Slide-25-Camel</title><path class="cls-1" d="M389.22,47.22a7.43,7.43,0,0,0-5.62-4.63l-49.12-8.81a12.73,12.73,0,0,0-14.66,9.74l-11.59-2a3.22,3.22,0,0,0-2.5,5.74l11.33,8.55L315.21,64l-13.69,52.67H270.36A42.68,42.68,0,0,0,243.22,91l-29.57-9.28a49,49,0,0,0-90.36,0l-29.73,9.3a42.68,42.68,0,0,0-28,27.9l-0.16,0c-14.6,0-22.24,30.09-22.24,59.82a4.5,4.5,0,0,0,9,0c0-29.09,11.42-48,11.42-47V303.42H105L81,288.77l6-76,27.42-37.57h108l27.42,37.57,5.63,76v14.67h41.42L273.12,289V163.58l51.3-17.92a23.8,23.8,0,0,0,15.95-22.46V80.66L381,64h14.67Z"/><path class="cls-2" d="M296.83,304.92H255.42a1.5,1.5,0,0,1-1.5-1.5V288.81l-5.59-75.52-26.71-36.61H115.14L88.42,213.3,82.55,288l23.27,14.17a1.5,1.5,0,0,1-.78,2.78H63.63a1.5,1.5,0,0,1-1.5-1.5v-166a102.37,102.37,0,0,0-8.42,41.33,6,6,0,0,1-12,0c0-15.68,2-30.43,5.72-41.53,4.12-12.4,10-19.2,17.09-19.75a44.21,44.21,0,0,1,28.6-27.85l29.07-9.09a50.52,50.52,0,0,1,92.57,0l28.91,9.07a43.92,43.92,0,0,1,27.71,25.55h29l13.4-51.54,1.63-7.23-10.56-8A4.72,4.72,0,0,1,308.48,40l10.25,1.8a14.2,14.2,0,0,1,16-9.5l49.12,8.81a9,9,0,0,1,6.75,5.57l6.49,16.77a1.5,1.5,0,0,1-1.4,2H381.34L341.88,81.66v41.53a25.32,25.32,0,0,1-17,23.88l-50.3,17.57v123.5l23,14A1.5,1.5,0,0,1,296.83,304.92Zm-39.92-3h34.57l-19.14-11.66a1.5,1.5,0,0,1-.72-1.28V163.58a1.5,1.5,0,0,1,1-1.42l51.3-17.92a22.32,22.32,0,0,0,14.94-21V80.66a1.5,1.5,0,0,1,.93-1.39L380.47,62.6a1.51,1.51,0,0,1,.57-0.11h12.48l-5.7-14.73a6,6,0,0,0-4.49-3.7l-49.12-8.81a11.2,11.2,0,0,0-12.94,8.59A1.5,1.5,0,0,1,319.55,45L308,43A1.72,1.72,0,0,0,306.63,46L318,54.57a1.5,1.5,0,0,1,.56,1.53l-1.85,8.22L303,117a1.5,1.5,0,0,1-1.45,1.12H270.36a1.5,1.5,0,0,1-1.4-1,41,41,0,0,0-26.19-24.72L213.2,83.19a1.5,1.5,0,0,1-.93-0.85,47.52,47.52,0,0,0-87.59,0,1.5,1.5,0,0,1-.93.85L94,92.49A41.21,41.21,0,0,0,67,119.4a1.48,1.48,0,0,1-1.49,1H65.38c-13.43.1-20.67,30.1-20.67,58.32a3,3,0,0,0,6,0,109,109,0,0,1,5.56-34.6,77.68,77.68,0,0,1,4-9.71c2.09-4.19,2.63-4.19,3.36-4.19a1.56,1.56,0,0,1,1.52,1.54V301.92H99.7L80.2,290.05a1.5,1.5,0,0,1-.72-1.4l6-76a1.5,1.5,0,0,1,.28-0.77l27.42-37.57a1.5,1.5,0,0,1,1.21-.62h108a1.5,1.5,0,0,1,1.21.62L251,211.87a1.5,1.5,0,0,1,.28.77l5.63,76s0,0.07,0,.11v13.17Z"/><circle class="cls-2" cx="344.79" cy="48.5" r="2.17"/><path class="cls-2" d="M437.42,304.92H1.5a1.5,1.5,0,0,1,0-3H437.42A1.5,1.5,0,0,1,437.42,304.92Z"/><path class="cls-2" d="M166.79,23a1.5,1.5,0,0,1-1.5-1.5V1.5a1.5,1.5,0,0,1,3,0v20A1.5,1.5,0,0,1,166.79,23Z"/><path class="cls-2" d="M189.31,28.38a1.5,1.5,0,0,1-1.36-2.13L196.4,8.12a1.5,1.5,0,1,1,2.72,1.27l-8.45,18.13A1.5,1.5,0,0,1,189.31,28.38Z"/><path class="cls-2" d="M144.28,28.38a1.5,1.5,0,0,1-1.36-.87L134.46,9.38a1.5,1.5,0,1,1,2.72-1.27l8.45,18.13A1.5,1.5,0,0,1,144.28,28.38Z"/></svg>